<svg width="361" height="370" viewBox="0 0 361 370" fill="none" xmlns="http://www.w3.org/2000/svg">
<circle cx="180.5" cy="189.5" r="177.5" stroke="url(#paint0_linear_101_2)" stroke-width="6"/>
<circle cx="59.5" cy="53.5" r="51" fill="url(#paint1_linear_101_2)" stroke="white" stroke-width="5"/>
<path d="M36.2118 60H33.4053L37.6816 47.6125H41.0567L45.327 60H42.5205L39.4175 50.4433H39.3208L36.2118 60ZM36.0364 55.1309H42.6656V57.1753H36.0364V55.1309ZM49.7606 60.1512C49.0549 60.1512 48.4158 59.9698 47.8432 59.6068C47.2746 59.2399 46.823 58.7016 46.4883 57.9919C46.1577 57.2781 45.9923 56.4031 45.9923 55.3668C45.9923 54.3022 46.1637 53.4171 46.5065 52.7115C46.8492 52.0018 47.3049 51.4715 47.8734 51.1207C48.446 50.7658 49.0731 50.5884 49.7545 50.5884C50.2747 50.5884 50.7082 50.6771 51.055 50.8546C51.4058 51.028 51.6881 51.2457 51.9018 51.5078C52.1195 51.7659 52.2849 52.0199 52.3978 52.2699H52.4764V47.6125H55.047V60H52.5066V58.5121H52.3978C52.2768 58.7701 52.1054 59.0262 51.8836 59.2802C51.6659 59.5302 51.3816 59.7379 51.0308 59.9032C50.684 60.0686 50.2606 60.1512 49.7606 60.1512ZM50.5771 58.1007C50.9925 58.1007 51.3433 57.9878 51.6296 57.762C51.9199 57.5322 52.1417 57.2116 52.2949 56.8003C52.4522 56.389 52.5308 55.9071 52.5308 55.3547C52.5308 54.8023 52.4542 54.3224 52.301 53.9151C52.1478 53.5079 51.926 53.1933 51.6356 52.9716C51.3453 52.7498 50.9925 52.6389 50.5771 52.6389C50.1537 52.6389 49.7969 52.7538 49.5066 52.9837C49.2162 53.2135 48.9965 53.5321 48.8473 53.9393C48.6981 54.3466 48.6235 54.8184 48.6235 55.3547C48.6235 55.895 48.6981 56.3729 48.8473 56.7882C49.0005 57.1995 49.2203 57.5221 49.5066 57.756C49.7969 57.9858 50.1537 58.1007 50.5771 58.1007ZM57.1656 60V50.7094H59.6213V52.3486H59.7301C59.9237 51.8042 60.2463 51.3747 60.6979 51.0602C61.1495 50.7457 61.6899 50.5884 62.3189 50.5884C62.9561 50.5884 63.4984 50.7477 63.946 51.0663C64.3936 51.3808 64.692 51.8082 64.8412 52.3486H64.938C65.1275 51.8163 65.4702 51.3909 65.9662 51.0723C66.4662 50.7497 67.057 50.5884 67.7385 50.5884C68.6054 50.5884 69.3091 50.8646 69.8494 51.4171C70.3938 51.9655 70.666 52.7437 70.666 53.7518V60H68.0953V54.2599C68.0953 53.7438 67.9582 53.3567 67.684 53.0986C67.4098 52.8405 67.0671 52.7115 66.6558 52.7115C66.188 52.7115 65.8231 52.8607 65.561 53.1591C65.2989 53.4534 65.1678 53.8426 65.1678 54.3264V60H62.6698V54.2055C62.6698 53.7498 62.5387 53.3869 62.2766 53.1167C62.0185 52.8466 61.6778 52.7115 61.2544 52.7115C60.9681 52.7115 60.71 52.7841 60.4802 52.9292C60.2544 53.0704 60.0749 53.27 59.9418 53.528C59.8088 53.7821 59.7422 54.0805 59.7422 54.4232V60H57.1656ZM72.7013 60V50.7094H75.278V60H72.7013ZM73.9957 49.5118C73.6126 49.5118 73.284 49.3848 73.0098 49.1307C72.7396 48.8726 72.6045 48.5642 72.6045 48.2053C72.6045 47.8504 72.7396 47.546 73.0098 47.292C73.284 47.0339 73.6126 46.9048 73.9957 46.9048C74.3788 46.9048 74.7054 47.0339 74.9756 47.292C75.2498 47.546 75.3869 47.8504 75.3869 48.2053C75.3869 48.5642 75.2498 48.8726 74.9756 49.1307C74.7054 49.3848 74.3788 49.5118 73.9957 49.5118ZM79.9188 54.6289V60H77.3421V50.7094H79.7978V52.3486H79.9067C80.1123 51.8082 80.4571 51.3808 80.941 51.0663C81.4249 50.7477 82.0116 50.5884 82.7011 50.5884C83.3463 50.5884 83.9088 50.7296 84.3887 51.0118C84.8685 51.2941 85.2415 51.6973 85.5076 52.2215C85.7738 52.7417 85.9069 53.3627 85.9069 54.0845V60H83.3302V54.5442C83.3342 53.9756 83.189 53.5321 82.8947 53.2135C82.6003 52.8909 82.195 52.7296 81.6789 52.7296C81.3321 52.7296 81.0257 52.8042 80.7595 52.9534C80.4974 53.1026 80.2918 53.3204 80.1426 53.6067C79.9974 53.8889 79.9228 54.2297 79.9188 54.6289Z" fill="white"/>
<circle cx="299.5" cy="316.5" r="51" fill="url(#paint2_linear_101_2)" stroke="white" stroke-width="5"/>
<path d="M268.797 314.175C268.748 313.687 268.541 313.308 268.174 313.038C267.807 312.768 267.309 312.633 266.68 312.633C266.252 312.633 265.891 312.693 265.597 312.814C265.303 312.931 265.077 313.094 264.919 313.304C264.766 313.514 264.69 313.752 264.69 314.018C264.682 314.24 264.728 314.433 264.829 314.599C264.934 314.764 265.077 314.907 265.258 315.028C265.44 315.145 265.649 315.248 265.887 315.336C266.125 315.421 266.379 315.494 266.649 315.554L267.762 315.82C268.303 315.941 268.799 316.103 269.25 316.304C269.702 316.506 270.093 316.754 270.424 317.048C270.754 317.343 271.01 317.689 271.192 318.089C271.377 318.488 271.472 318.945 271.476 319.462C271.472 320.22 271.279 320.877 270.895 321.433C270.516 321.986 269.968 322.415 269.25 322.722C268.537 323.024 267.676 323.175 266.668 323.175C265.667 323.175 264.796 323.022 264.055 322.716C263.317 322.409 262.74 321.956 262.325 321.355C261.913 320.75 261.698 320.002 261.677 319.111H264.212C264.24 319.526 264.359 319.873 264.569 320.151C264.782 320.425 265.067 320.633 265.422 320.774C265.78 320.911 266.186 320.98 266.637 320.98C267.081 320.98 267.466 320.915 267.793 320.786C268.123 320.657 268.379 320.478 268.561 320.248C268.742 320.018 268.833 319.754 268.833 319.456C268.833 319.177 268.75 318.943 268.585 318.754C268.424 318.564 268.186 318.403 267.871 318.27C267.561 318.137 267.18 318.016 266.728 317.907L265.379 317.568C264.335 317.314 263.51 316.917 262.905 316.377C262.3 315.836 262 315.109 262.004 314.193C262 313.443 262.2 312.788 262.603 312.227C263.01 311.667 263.569 311.229 264.278 310.915C264.988 310.6 265.795 310.443 266.698 310.443C267.617 310.443 268.42 310.6 269.105 310.915C269.795 311.229 270.331 311.667 270.714 312.227C271.097 312.788 271.295 313.437 271.307 314.175H268.797ZM278.131 313.709V315.645H272.536V313.709H278.131ZM273.806 311.484H276.383V320.145C276.383 320.383 276.419 320.568 276.492 320.702C276.564 320.831 276.665 320.921 276.794 320.974C276.927 321.026 277.081 321.052 277.254 321.052C277.375 321.052 277.496 321.042 277.617 321.022C277.738 320.998 277.831 320.98 277.895 320.968L278.3 322.885C278.171 322.925 277.99 322.972 277.756 323.024C277.522 323.081 277.238 323.115 276.903 323.127C276.282 323.151 275.738 323.069 275.27 322.879C274.806 322.69 274.445 322.395 274.187 321.996C273.929 321.597 273.802 321.093 273.806 320.484V311.484ZM285.767 319.044V313.709H288.344V323H285.87V321.312H285.773C285.564 321.857 285.215 322.294 284.727 322.625C284.243 322.956 283.652 323.121 282.955 323.121C282.334 323.121 281.787 322.98 281.316 322.698C280.844 322.415 280.475 322.014 280.209 321.494C279.947 320.974 279.814 320.351 279.81 319.625V313.709H282.386V319.165C282.39 319.714 282.537 320.147 282.828 320.466C283.118 320.784 283.507 320.943 283.995 320.943C284.306 320.943 284.596 320.873 284.866 320.732C285.136 320.587 285.354 320.373 285.519 320.091C285.689 319.808 285.771 319.46 285.767 319.044ZM293.829 323.151C293.123 323.151 292.484 322.97 291.911 322.607C291.343 322.24 290.891 321.702 290.556 320.992C290.226 320.278 290.06 319.403 290.06 318.367C290.06 317.302 290.232 316.417 290.574 315.711C290.917 315.002 291.373 314.472 291.941 314.121C292.514 313.766 293.141 313.588 293.823 313.588C294.343 313.588 294.776 313.677 295.123 313.855C295.474 314.028 295.756 314.246 295.97 314.508C296.188 314.766 296.353 315.02 296.466 315.27H296.544V310.613H299.115V323H296.575V321.512H296.466C296.345 321.77 296.173 322.026 295.952 322.28C295.734 322.53 295.45 322.738 295.099 322.903C294.752 323.069 294.329 323.151 293.829 323.151ZM294.645 321.101C295.061 321.101 295.411 320.988 295.698 320.762C295.988 320.532 296.21 320.212 296.363 319.8C296.52 319.389 296.599 318.907 296.599 318.355C296.599 317.802 296.522 317.322 296.369 316.915C296.216 316.508 295.994 316.193 295.704 315.972C295.413 315.75 295.061 315.639 294.645 315.639C294.222 315.639 293.865 315.754 293.575 315.984C293.284 316.214 293.064 316.532 292.915 316.939C292.766 317.347 292.691 317.818 292.691 318.355C292.691 318.895 292.766 319.373 292.915 319.788C293.069 320.2 293.288 320.522 293.575 320.756C293.865 320.986 294.222 321.101 294.645 321.101ZM305.468 323.181C304.512 323.181 303.689 322.988 303 322.601C302.314 322.21 301.786 321.657 301.415 320.943C301.044 320.226 300.859 319.377 300.859 318.397C300.859 317.441 301.044 316.603 301.415 315.881C301.786 315.159 302.308 314.597 302.982 314.193C303.659 313.79 304.453 313.588 305.365 313.588C305.978 313.588 306.548 313.687 307.076 313.885C307.609 314.078 308.072 314.371 308.468 314.762C308.867 315.153 309.177 315.645 309.399 316.238C309.621 316.826 309.732 317.516 309.732 318.306V319.014H301.887V317.417H307.306C307.306 317.046 307.226 316.718 307.064 316.431C306.903 316.145 306.679 315.921 306.393 315.76C306.111 315.595 305.782 315.512 305.407 315.512C305.016 315.512 304.669 315.603 304.367 315.784C304.068 315.961 303.834 316.201 303.665 316.504C303.496 316.802 303.409 317.135 303.405 317.502V319.02C303.405 319.48 303.49 319.877 303.659 320.212C303.832 320.546 304.076 320.804 304.391 320.986C304.705 321.167 305.078 321.258 305.51 321.258C305.796 321.258 306.058 321.218 306.296 321.137C306.534 321.056 306.738 320.935 306.907 320.774C307.076 320.613 307.206 320.415 307.294 320.181L309.677 320.339C309.556 320.911 309.308 321.411 308.933 321.839C308.562 322.262 308.083 322.593 307.494 322.831C306.909 323.065 306.234 323.181 305.468 323.181ZM313.99 317.629V323H311.413V313.709H313.869V315.349H313.978C314.184 314.808 314.528 314.381 315.012 314.066C315.496 313.748 316.083 313.588 316.772 313.588C317.418 313.588 317.98 313.73 318.46 314.012C318.94 314.294 319.313 314.697 319.579 315.222C319.845 315.742 319.978 316.363 319.978 317.084V323H317.401V317.544C317.405 316.976 317.26 316.532 316.966 316.214C316.672 315.891 316.266 315.73 315.75 315.73C315.403 315.73 315.097 315.804 314.831 315.953C314.569 316.103 314.363 316.32 314.214 316.607C314.069 316.889 313.994 317.23 313.99 317.629ZM326.951 313.709V315.645H321.356V313.709H326.951ZM322.626 311.484H325.203V320.145C325.203 320.383 325.239 320.568 325.311 320.702C325.384 320.831 325.485 320.921 325.614 320.974C325.747 321.026 325.9 321.052 326.074 321.052C326.195 321.052 326.315 321.042 326.436 321.022C326.557 320.998 326.65 320.98 326.715 320.968L327.12 322.885C326.991 322.925 326.809 322.972 326.576 323.024C326.342 323.081 326.057 323.115 325.723 323.127C325.102 323.151 324.557 323.069 324.09 322.879C323.626 322.69 323.265 322.395 323.007 321.996C322.749 321.597 322.622 321.093 322.626 320.484V311.484ZM336.243 316.359L333.884 316.504C333.843 316.302 333.757 316.121 333.624 315.959C333.491 315.794 333.315 315.663 333.097 315.566C332.884 315.465 332.628 315.415 332.329 315.415C331.93 315.415 331.593 315.5 331.319 315.669C331.045 315.834 330.908 316.056 330.908 316.334C330.908 316.556 330.997 316.744 331.174 316.897C331.351 317.05 331.656 317.173 332.087 317.266L333.769 317.605C334.672 317.79 335.346 318.089 335.789 318.5C336.233 318.911 336.454 319.452 336.454 320.121C336.454 320.73 336.275 321.264 335.916 321.724C335.561 322.183 335.073 322.542 334.452 322.8C333.835 323.054 333.124 323.181 332.317 323.181C331.087 323.181 330.107 322.925 329.378 322.413C328.652 321.897 328.226 321.196 328.101 320.308L330.636 320.175C330.712 320.55 330.898 320.837 331.192 321.034C331.487 321.228 331.864 321.325 332.323 321.325C332.775 321.325 333.138 321.238 333.412 321.064C333.69 320.887 333.831 320.659 333.835 320.381C333.831 320.147 333.733 319.956 333.539 319.806C333.345 319.653 333.047 319.536 332.644 319.456L331.035 319.135C330.128 318.954 329.452 318.639 329.009 318.191C328.569 317.744 328.349 317.173 328.349 316.48C328.349 315.883 328.511 315.369 328.833 314.937C329.16 314.506 329.618 314.173 330.206 313.939C330.799 313.705 331.493 313.588 332.287 313.588C333.46 313.588 334.384 313.836 335.057 314.332C335.735 314.828 336.13 315.504 336.243 316.359Z" fill="white"/>
<g clip-path="url(#clip0_101_2)">
<path fill-rule="evenodd" clip-rule="evenodd" d="M285.979 190.175C268.56 177.947 266.097 166.293 277.692 148.876C257.185 145.099 250.736 135.554 255.084 115.149C234.798 119.524 225.311 113.034 221.556 92.409C204.241 104.069 192.658 101.594 180.5 84.0734C168.342 101.594 156.759 104.075 139.444 92.409C135.689 113.034 126.202 119.524 105.915 115.149C110.264 135.554 103.815 145.099 83.3079 148.876C94.9026 166.293 92.4404 177.947 75.0208 190.175C92.4404 202.403 94.9026 214.057 83.3079 231.474C103.815 235.251 110.264 244.796 105.915 265.202C126.202 260.826 135.689 267.316 139.444 287.941C156.759 276.281 168.342 278.756 180.5 296.277C192.658 278.756 204.241 276.275 221.556 287.941C225.311 267.316 234.798 260.826 255.084 265.202C250.736 244.796 257.185 235.251 277.692 231.474C266.097 214.057 268.56 202.403 285.979 190.175ZM180.5 272.804C226.238 272.804 263.317 235.81 263.317 190.175C263.317 144.54 226.238 107.546 180.5 107.546C134.762 107.546 97.6834 144.54 97.6834 190.175C97.6834 235.81 134.762 272.804 180.5 272.804Z" fill="url(#paint3_linear_101_2)"/>
<rect x="118" y="167.758" width="5.84213" height="47.2421" rx="2.92107" fill="#3333CC"/>
<path fill-rule="evenodd" clip-rule="evenodd" d="M133.933 215C142.733 215 149.866 207.789 149.866 198.895C149.866 190 142.733 182.789 133.933 182.789C125.133 182.789 118 190 118 198.895C118 207.789 125.133 215 133.933 215ZM133.933 209.095C139.506 209.095 144.024 204.528 144.024 198.895C144.024 193.261 139.506 188.695 133.933 188.695C128.36 188.695 123.842 193.261 123.842 198.895C123.842 204.528 128.36 209.095 133.933 209.095Z" fill="#3333CC"/>
<rect x="154.115" y="181.716" width="5.84213" height="33.2842" rx="2.92107" fill="#3333CC"/>
<path fill-rule="evenodd" clip-rule="evenodd" d="M170.579 186.556V181.182C170.491 181.18 170.402 181.179 170.314 181.179C163.714 181.179 158.364 186.226 158.364 192.453C158.364 193.196 158.44 193.922 158.586 194.625C159.668 190.157 164.591 186.747 170.579 186.556Z" fill="#3333CC"/>
<ellipse cx="170.579" cy="183.863" rx="2.65551" ry="2.68421" fill="#3333CC"/>
<rect x="177.484" y="181.716" width="5.84213" height="33.2842" rx="2.92106" fill="#3333CC"/>
<path d="M192.885 177.658C192.885 176.045 194.193 174.737 195.807 174.737C197.42 174.737 198.728 176.045 198.728 177.658V205.337H192.885V177.658Z" fill="#3333CC"/>
<rect x="187.574" y="181.179" width="16.4642" height="5.90526" rx="2.95263" fill="#3333CC"/>
<path fill-rule="evenodd" clip-rule="evenodd" d="M192.885 206.142C192.885 202.285 195.324 199.004 198.728 197.788V206.142V206.41H198.74C198.866 207.827 199.982 208.955 201.383 209.083V214.996C196.666 214.854 192.885 210.944 192.885 206.142Z" fill="#3333CC"/>
<ellipse cx="201.383" cy="212.047" rx="2.92107" ry="2.95263" fill="#3333CC"/>
<path fill-rule="evenodd" clip-rule="evenodd" d="M239.306 188.868C240.956 191.431 241.877 194.382 241.999 197.401C242.064 199.018 240.564 200.15 238.961 199.934L237.523 199.74C236.723 199.632 236.17 198.897 236.17 198.089C236.17 192.011 231.296 187.084 225.283 187.084C219.27 187.084 214.395 192.011 214.395 198.089C214.395 204.168 219.27 209.095 225.283 209.095C227.404 209.095 229.384 208.481 231.058 207.421C232.438 206.546 234.298 206.419 235.498 207.528C236.68 208.62 236.776 210.484 235.507 211.474C233.138 213.323 230.306 214.508 227.3 214.877C223.331 215.364 219.32 214.398 215.995 212.155C212.67 209.911 210.249 206.538 209.172 202.646C208.095 198.754 208.432 194.601 210.122 190.939C211.813 187.277 214.745 184.347 218.388 182.682C222.031 181.016 226.143 180.725 229.98 181.859C233.818 182.994 237.126 185.48 239.306 188.868Z" fill="#3333CC"/>
<path d="M210.146 197.016C210.146 195.385 211.468 194.063 213.099 194.063H238.529C240.159 194.063 241.481 195.385 241.481 197.016C241.481 198.646 240.159 199.968 238.529 199.968H213.099C211.468 199.968 210.146 198.646 210.146 197.016Z" fill="#3333CC"/>
<rect x="237.233" y="198.895" width="2.12441" height="1.07368" fill="#3333CC"/>
<rect x="177.484" y="164" width="5.84213" height="14.4947" rx="2.92106" fill="#9FB7FF"/>
<rect width="5.87814" height="14.4339" rx="2.93907" transform="matrix(0.845258 -0.534366 0.525485 0.850808 165.403 169.206)" fill="#9FB7FF"/>
<rect width="5.87814" height="14.4339" rx="2.93907" transform="matrix(0.845258 0.534366 -0.525485 0.850807 190.437 166.065)" fill="#9FB7FF"/>
</g>
<defs>
<linearGradient id="paint0_linear_101_2" x1="10.5" y1="146" x2="345.5" y2="263" gradientUnits="userSpaceOnUse">
<stop stop-color="#8437F9"/>
<stop offset="1" stop-color="#3333CC"/>
</linearGradient>
<linearGradient id="paint1_linear_101_2" x1="59.5" y1="0" x2="59.5" y2="107" gradientUnits="userSpaceOnUse">
<stop stop-color="#3333CC"/>
<stop offset="1" stop-color="#8437F9"/>
</linearGradient>
<linearGradient id="paint2_linear_101_2" x1="299.5" y1="263" x2="299.5" y2="370" gradientUnits="userSpaceOnUse">
<stop stop-color="#3333CC"/>
<stop offset="1" stop-color="#8237F7"/>
</linearGradient>
<linearGradient id="paint3_linear_101_2" x1="118.5" y1="107" x2="252.5" y2="266" gradientUnits="userSpaceOnUse">
<stop stop-color="#3333CC"/>
<stop offset="1" stop-color="#9038FF"/>
</linearGradient>
<clipPath id="clip0_101_2">
<rect width="211" height="212.344" fill="white" transform="translate(75 84)"/>
</clipPath>
</defs>
</svg>
