<svg width="539" height="210" viewBox="0 0 539 210" fill="none" xmlns="http://www.w3.org/2000/svg">
<g clip-path="url(#clip0_4_31)">
<path fill-rule="evenodd" clip-rule="evenodd" d="M538.279 105.003C521.082 92.9096 518.652 81.3843 530.098 64.1598C509.854 60.4248 503.487 50.9846 507.78 30.8047C487.753 35.132 478.387 28.7136 474.68 8.31619C457.587 19.8475 446.152 17.3998 434.15 0.0726089C422.147 17.3998 410.713 19.8536 393.619 8.31619C389.913 28.7136 380.546 35.132 360.52 30.8047C364.813 50.9846 358.446 60.4248 338.202 64.1598C349.648 81.3843 347.217 92.9096 330.021 105.003C347.217 117.096 349.648 128.622 338.202 145.846C358.446 149.581 364.813 159.021 360.52 179.201C380.546 174.874 389.913 181.292 393.619 201.69C410.713 190.159 422.147 192.606 434.15 209.933C446.152 192.606 457.587 190.152 474.68 201.69C478.387 181.292 487.753 174.874 507.78 179.201C503.487 159.021 509.854 149.581 530.098 145.846C518.652 128.622 521.082 117.096 538.279 105.003ZM434.15 186.72C479.303 186.72 515.906 150.134 515.906 105.003C515.906 59.8722 479.303 23.2864 434.15 23.2864C388.997 23.2864 352.393 59.8722 352.393 105.003C352.393 150.134 388.997 186.72 434.15 186.72Z" fill="url(#paint0_linear_4_31)"/>
</g>
<path d="M7.33147 153V56.13H47.7255C54.9782 56.13 61.0483 57.1548 65.936 59.2045C70.8551 61.2541 74.5445 64.1236 77.0041 67.813C79.4952 71.5024 80.7408 75.7752 80.7408 80.6313C80.7408 84.3207 79.9682 87.6159 78.4231 90.5169C76.878 93.3865 74.7495 95.7672 72.0376 97.6592C69.3258 99.5512 66.1882 100.876 62.625 101.632V102.578C66.5351 102.768 70.1456 103.824 73.4566 105.747C76.7991 107.671 79.4795 110.351 81.4976 113.788C83.5157 117.194 84.5248 121.23 84.5248 125.897C84.5248 131.1 83.2004 135.751 80.5516 139.851C77.9028 143.918 74.0715 147.135 69.0577 149.5C64.044 151.833 57.958 153 50.8 153H7.33147ZM30.7449 134.127H45.2186C50.2955 134.127 54.0322 133.166 56.4287 131.242C58.8567 129.319 60.0708 126.638 60.0708 123.201C60.0708 120.71 59.4874 118.566 58.3207 116.768C57.154 114.939 55.4985 113.536 53.3542 112.559C51.2099 111.55 48.64 111.045 45.6443 111.045H30.7449V134.127ZM30.7449 95.9564H43.705C46.2592 95.9564 48.5296 95.5307 50.5162 94.6793C52.5028 93.8279 54.0479 92.5981 55.1516 90.9899C56.2868 89.3817 56.8544 87.4424 56.8544 85.1721C56.8544 81.9241 55.7034 79.3699 53.4015 77.5095C51.0996 75.649 47.9935 74.7188 44.0834 74.7188H30.7449V95.9564ZM95.7821 153V80.3475H118.25V93.5914H119.006C120.331 88.7984 122.491 85.2351 125.486 82.9017C128.482 80.5367 131.966 79.3542 135.94 79.3542C137.012 79.3542 138.115 79.433 139.251 79.5907C140.386 79.7168 141.442 79.9218 142.42 80.2056V100.308C141.316 99.9296 139.866 99.63 138.068 99.4093C136.302 99.1886 134.726 99.0782 133.338 99.0782C130.595 99.0782 128.119 99.6931 125.912 100.923C123.736 102.121 122.018 103.808 120.756 105.984C119.527 108.128 118.912 110.651 118.912 113.552V153H95.7821ZM151.844 153V80.3475H174.974V153H151.844ZM163.433 71.8808C160.185 71.8808 157.394 70.8087 155.061 68.6644C152.727 66.4886 151.56 63.8714 151.56 60.8127C151.56 57.7855 152.727 55.1997 155.061 53.0555C157.394 50.8797 160.185 49.7918 163.433 49.7918C166.712 49.7918 169.503 50.8797 171.805 53.0555C174.138 55.1997 175.305 57.7855 175.305 60.8127C175.305 63.8714 174.138 66.4886 171.805 68.6644C169.503 70.8087 166.712 71.8808 163.433 71.8808ZM230.705 80.3475V97.3754H184.871V80.3475H230.705ZM194.473 62.9411H217.603V130.154C217.603 131.573 217.824 132.724 218.265 133.607C218.738 134.458 219.416 135.073 220.299 135.452C221.182 135.799 222.238 135.972 223.468 135.972C224.351 135.972 225.281 135.893 226.259 135.736C227.268 135.546 228.025 135.389 228.529 135.263L232.029 151.959C230.926 152.275 229.365 152.669 227.347 153.142C225.36 153.615 222.979 153.914 220.204 154.041C214.781 154.293 210.129 153.662 206.251 152.149C202.404 150.603 199.455 148.207 197.406 144.959C195.388 141.711 194.41 137.628 194.473 132.708V62.9411ZM275.687 154.372C268.087 154.372 261.529 152.874 256.01 149.878C250.523 146.851 246.298 142.547 243.334 136.965C240.401 131.352 238.935 124.683 238.935 116.958C238.935 109.453 240.417 102.894 243.381 97.2808C246.345 91.6364 250.523 87.2532 255.916 84.1315C261.308 80.9781 267.662 79.4015 274.978 79.4015C280.149 79.4015 284.879 80.2056 289.167 81.8138C293.456 83.422 297.161 85.8027 300.283 88.956C303.405 92.1094 305.833 96.0037 307.567 100.639C309.301 105.243 310.169 110.525 310.169 116.485V122.255H247.023V108.822H288.647C288.616 106.362 288.032 104.171 286.897 102.247C285.762 100.324 284.201 98.8259 282.214 97.7538C280.259 96.6501 278.005 96.0983 275.451 96.0983C272.865 96.0983 270.547 96.6817 268.497 97.8484C266.448 98.9836 264.824 100.545 263.626 102.531C262.427 104.486 261.797 106.709 261.734 109.2V122.87C261.734 125.834 262.317 128.436 263.484 130.674C264.65 132.882 266.306 134.6 268.45 135.83C270.594 137.06 273.149 137.675 276.113 137.675C278.162 137.675 280.023 137.391 281.694 136.823C283.365 136.256 284.8 135.42 285.998 134.317C287.197 133.213 288.095 131.857 288.694 130.249L309.932 130.864C309.049 135.625 307.11 139.772 304.114 143.304C301.15 146.804 297.256 149.531 292.431 151.486C287.607 153.41 282.025 154.372 275.687 154.372Z" fill="#4CA6FA"/>
<defs>
<linearGradient id="paint0_linear_4_31" x1="330.021" y1="105.003" x2="538.279" y2="105.003" gradientUnits="userSpaceOnUse">
<stop stop-color="#3FB1FF"/>
<stop offset="1" stop-color="#3FF1FF"/>
</linearGradient>
<clipPath id="clip0_4_31">
<rect width="208.3" height="210" fill="white" transform="translate(330)"/>
</clipPath>
</defs>
</svg>
