<svg width="635" height="258" viewBox="0 0 635 258" fill="none" xmlns="http://www.w3.org/2000/svg">
<rect y="19.0105" width="29.8737" height="238.989" rx="14.9368" fill="#3333CC"/>
<path fill-rule="evenodd" clip-rule="evenodd" d="M81.4736 258C126.47 258 162.947 221.523 162.947 176.526C162.947 131.529 126.47 95.0525 81.4736 95.0525C36.477 95.0525 0 131.529 0 176.526C0 221.523 36.477 258 81.4736 258ZM81.4736 228.126C109.971 228.126 133.074 205.024 133.074 176.526C133.074 148.028 109.971 124.926 81.4736 124.926C52.9757 124.926 29.8737 148.028 29.8737 176.526C29.8737 205.024 52.9757 228.126 81.4736 228.126Z" fill="#3333CC"/>
<rect x="184.674" y="89.621" width="29.8737" height="168.379" rx="14.9368" fill="#3333CC"/>
<path fill-rule="evenodd" clip-rule="evenodd" d="M268.863 114.106V86.919C268.412 86.9098 267.959 86.9052 267.505 86.9052C233.758 86.9052 206.4 112.439 206.4 143.937C206.4 147.696 206.79 151.371 207.533 154.927C213.069 132.326 238.242 115.073 268.863 114.106Z" fill="#3333CC"/>
<circle cx="268.863" cy="100.484" r="13.5789" fill="#3333CC"/>
<rect x="304.168" y="89.621" width="29.8737" height="168.379" rx="14.9368" fill="#3333CC"/>
<path d="M382.926 69.2526C382.926 61.0033 389.613 54.3158 397.863 54.3158C406.112 54.3158 412.8 61.0032 412.8 69.2526V209.116H382.926V69.2526Z" fill="#3333CC"/>
<rect x="355.768" y="86.9053" width="84.1894" height="29.8737" rx="14.9368" fill="#3333CC"/>
<path fill-rule="evenodd" clip-rule="evenodd" d="M382.926 213.189C382.926 193.679 395.395 177.08 412.8 170.929V213.182L412.8 213.189L412.8 213.197V214.547H412.861C413.506 221.713 419.213 227.419 426.379 228.065V257.98C402.259 257.262 382.926 237.483 382.926 213.189Z" fill="#3333CC"/>
<circle cx="426.378" cy="243.063" r="14.9368" fill="#3333CC"/>
<path fill-rule="evenodd" clip-rule="evenodd" d="M620.297 125.802C628.712 138.736 633.42 153.622 634.061 168.858C634.408 177.103 626.753 182.882 618.573 181.79L611.1 180.793C607.056 180.254 604.263 176.533 604.263 172.453C604.263 141.705 579.337 116.779 548.589 116.779C517.841 116.779 492.916 141.705 492.916 172.453C492.916 203.2 517.841 228.126 548.589 228.126C559.497 228.126 569.672 224.989 578.261 219.569C585.237 215.166 594.618 214.525 600.706 220.091C606.796 225.657 607.284 235.233 600.744 240.262C588.656 249.56 574.222 255.515 558.903 257.376C538.608 259.841 518.101 254.956 501.096 243.606C484.092 232.256 471.715 215.192 466.206 195.504C460.697 175.815 462.421 154.805 471.066 136.279C479.711 117.752 494.705 102.934 513.332 94.5084C531.959 86.0826 552.988 84.6063 572.61 90.3468C592.232 96.0873 609.149 108.665 620.297 125.802Z" fill="#3333CC"/>
<path d="M471.189 167.021C471.189 158.772 477.877 152.084 486.126 152.084H616.484C624.733 152.084 631.421 158.772 631.421 167.021C631.421 175.27 624.733 181.958 616.484 181.958H486.126C477.877 181.958 471.189 175.27 471.189 167.021Z" fill="#3333CC"/>
<rect x="609.694" y="176.526" width="10.8631" height="5.43157" fill="#3333CC"/>
<rect x="304.168" width="29.8736" height="73.3262" rx="14.9368" fill="#9FB7FF"/>
<rect x="242.396" y="26.2791" width="29.8736" height="73.3262" rx="14.9368" transform="rotate(-32 242.396 26.2791)" fill="#9FB7FF"/>
<rect x="370.48" y="10.4484" width="29.8736" height="73.3262" rx="14.9368" transform="rotate(32 370.48 10.4484)" fill="#9FB7FF"/>
</svg>
