<svg width="109" height="48" viewBox="0 0 109 48" fill="none" xmlns="http://www.w3.org/2000/svg">
<rect x="0.703125" y="4.39966" width="5.08831" height="43.5368" rx="2.54415" fill="#3333CC"/>
<path fill-rule="evenodd" clip-rule="evenodd" d="M14.5803 47.9364C22.2445 47.9364 28.4575 41.2914 28.4575 33.0943C28.4575 24.8972 22.2445 18.2522 14.5803 18.2522C6.91616 18.2522 0.703125 24.8972 0.703125 33.0943C0.703125 41.2914 6.91616 47.9364 14.5803 47.9364ZM14.5805 42.4944C19.4345 42.4944 23.3694 38.2859 23.3694 33.0944C23.3694 27.9029 19.4345 23.6944 14.5805 23.6944C9.72651 23.6944 5.79159 27.9029 5.79159 33.0944C5.79159 38.2859 9.72651 42.4944 14.5805 42.4944Z" fill="#3333CC"/>
<rect x="32.1582" y="17.2629" width="5.08831" height="30.6737" rx="2.54415" fill="#3333CC"/>
<path fill-rule="evenodd" clip-rule="evenodd" d="M46.498 16.7706C46.4209 16.7689 46.3437 16.7681 46.2663 16.7681C40.5182 16.7681 35.8584 21.4196 35.8584 27.1575C35.8584 27.8424 35.9248 28.5117 36.0515 29.1596C36.9944 25.0422 41.2821 21.8993 46.498 21.7232V16.7706Z" fill="#3333CC"/>
<ellipse cx="46.4984" cy="19.2417" rx="2.31287" ry="2.47368" fill="#3333CC"/>
<rect x="52.5117" y="17.2629" width="5.08831" height="30.6737" rx="2.54415" fill="#3333CC"/>
<path d="M65.9258 13.3755C65.9258 11.9704 67.0648 10.8313 68.4699 10.8313C69.875 10.8313 71.0141 11.9704 71.0141 13.3755V39.0313H65.9258V13.3755Z" fill="#3333CC"/>
<rect x="61.2998" y="16.7681" width="14.3398" height="5.4421" rx="2.72105" fill="#3333CC"/>
<path fill-rule="evenodd" clip-rule="evenodd" d="M65.9258 39.7734C65.9258 36.2191 68.0497 33.1953 71.0142 32.0747V39.7512L71.0142 39.7734L71.0142 39.7957V40.0207H71.0245C71.1345 41.3261 72.1064 42.3657 73.327 42.4834V47.9329C69.2187 47.8021 65.9258 44.1991 65.9258 39.7734Z" fill="#3333CC"/>
<ellipse cx="73.3274" cy="45.2154" rx="2.54416" ry="2.72105" fill="#3333CC"/>
<path fill-rule="evenodd" clip-rule="evenodd" d="M106.356 23.8539C107.812 26.2464 108.616 29.0054 108.705 31.8255C108.75 33.2495 107.429 34.2483 106.018 34.047L104.874 33.8838C104.135 33.7783 103.625 33.0991 103.625 32.3523C103.625 26.751 99.3797 22.2102 94.1425 22.2102C88.9053 22.2102 84.6598 26.751 84.6598 32.3523C84.6598 37.9536 88.9053 42.4944 94.1425 42.4944C95.9361 42.4944 97.6134 41.9618 99.0437 41.0364C100.316 40.213 102.061 40.0935 103.145 41.1533C104.131 42.1175 104.216 43.7037 103.161 44.5926C101.075 46.351 98.5657 47.4764 95.8991 47.8228C92.4422 48.2718 88.9494 47.3819 86.0531 45.3143C83.1568 43.2467 81.0485 40.1381 80.1102 36.5515C79.1719 32.9649 79.4656 29.1375 80.9381 25.7625C82.4105 22.3875 84.9644 19.6881 88.1371 18.1532C91.3098 16.6182 94.8916 16.3493 98.2338 17.395C101.576 18.4408 104.457 20.7321 106.356 23.8539Z" fill="#3333CC"/>
<path d="M80.96 31.3627C80.96 29.8599 82.1782 28.6416 83.681 28.6416H105.531C107.034 28.6416 108.252 29.8599 108.252 31.3627C108.252 32.8654 107.034 34.0837 105.531 34.0837H83.681C82.1782 34.0837 80.96 32.8654 80.96 31.3627Z" fill="#3333CC"/>
<rect x="104.551" y="33.0945" width="1.85029" height="0.989473" fill="#3333CC"/>
<rect x="52.5117" y="0.936523" width="5.08831" height="13.3579" rx="2.54415" fill="#3333CC"/>
<rect width="5.2913" height="13.0201" rx="2.64565" transform="matrix(0.830087 -0.557919 0.502401 0.864808 41.9902 5.79199)" fill="#3333CC"/>
<rect width="5.2913" height="13.0201" rx="2.64565" transform="matrix(0.830087 0.557919 -0.502401 0.864808 63.7285 2.83984)" fill="#3333CC"/>
</svg>
