<svg width="949" height="705" viewBox="0 0 949 705" fill="none" xmlns="http://www.w3.org/2000/svg">
<rect x="0.999023" width="947.954" height="705" rx="29.2846" fill="white"/>
<rect x="37.999" y="28" width="874" height="650" rx="27" fill="url(#paint0_linear_37_134)"/>
<path d="M503.887 100.558C503.536 99.7291 502.955 99.0178 502.213 98.5073C501.471 97.9969 500.599 97.7084 499.699 97.6758C439.634 95.1586 317.339 171.576 260.029 257.598C249.787 272.843 240.894 288.951 233.45 305.74C210.954 308.217 189.178 314.282 171.986 326.272C123.525 360.324 120.29 424.469 121.245 451.592C121.289 453.079 121.676 454.534 122.378 455.845C123.08 457.156 124.076 458.287 125.288 459.147C126.501 460.008 127.896 460.576 129.365 460.806C130.834 461.036 132.337 460.922 133.754 460.473L217.221 433.943C218.572 440.366 220.25 446.716 222.246 452.968C223.566 457.323 226.37 461.079 230.171 463.582L269.836 489.928C273.613 492.466 278.158 493.604 282.685 493.148C289.188 492.584 295.657 491.691 302.069 490.471L309.799 577.596C309.933 579.076 310.408 580.505 311.187 581.771C311.967 583.037 313.028 584.104 314.289 584.891C315.551 585.677 316.977 586.161 318.456 586.304C319.935 586.447 321.428 586.245 322.816 585.714C348.183 576.255 406.228 548.517 418.827 490.701C423.261 470.216 420.532 447.883 414.224 426.267C426.881 412.917 438.35 398.491 448.502 383.15C506.059 297.191 529.724 157.897 503.887 100.558ZM359.651 312.191C351.77 306.946 345.621 299.482 341.982 290.742C338.344 282.002 337.379 272.38 339.21 263.091C341.041 253.803 345.585 245.267 352.268 238.561C358.952 231.856 367.473 227.284 376.755 225.422C386.038 223.561 395.663 224.494 404.415 228.104C413.167 231.714 420.651 237.839 425.922 245.703C431.192 253.567 434.012 262.818 434.024 272.285C434.037 281.752 431.241 291.01 425.991 298.888C422.512 304.121 418.035 308.616 412.817 312.118C407.598 315.619 401.741 318.057 395.579 319.293C389.418 320.528 383.073 320.537 376.908 319.318C370.743 318.1 364.879 315.678 359.651 312.191Z" fill="black"/>
<path d="M281.69 498.407C277.576 504.956 269.503 508.98 259.622 513.098C237.407 522.291 212.458 506.962 211.297 482.655C210.867 473.437 212.73 459.956 214.984 456.376C215.479 455.606 215.719 454.699 215.67 453.785C215.621 452.87 215.285 451.995 214.71 451.282C214.134 450.57 213.349 450.056 212.466 449.815C211.582 449.574 210.645 449.618 209.788 449.94C197.224 454.46 186.534 463.053 179.418 474.351C161.763 502.426 178.908 587.804 178.908 587.804C178.908 587.804 263.352 566.331 281.007 538.256C288.148 526.956 291.277 513.58 289.889 500.285C289.324 496.139 283.825 494.843 281.69 498.407Z" fill="black"/>
<path d="M540.41 334V300.069H547.584V328.085H562.13V334H540.41ZM574.005 334.48C572.381 334.48 570.935 334.199 569.664 333.636C568.394 333.061 567.389 332.216 566.649 331.101C565.92 329.974 565.556 328.571 565.556 326.892C565.556 325.479 565.815 324.291 566.334 323.33C566.853 322.369 567.56 321.596 568.455 321.011C569.35 320.426 570.366 319.984 571.503 319.685C572.652 319.387 573.856 319.177 575.115 319.056C576.595 318.901 577.788 318.758 578.694 318.625C579.599 318.482 580.257 318.272 580.665 317.996C581.074 317.719 581.278 317.311 581.278 316.77V316.67C581.278 315.621 580.947 314.809 580.284 314.235C579.633 313.66 578.705 313.373 577.501 313.373C576.231 313.373 575.22 313.655 574.469 314.218C573.718 314.77 573.221 315.466 572.978 316.306L566.45 315.776C566.782 314.229 567.433 312.893 568.405 311.766C569.377 310.628 570.631 309.756 572.166 309.148C573.712 308.53 575.502 308.221 577.534 308.221C578.948 308.221 580.301 308.386 581.593 308.718C582.896 309.049 584.051 309.563 585.056 310.258C586.072 310.954 586.873 311.849 587.458 312.942C588.044 314.025 588.336 315.323 588.336 316.836V334H581.643V330.471H581.444C581.035 331.266 580.489 331.968 579.804 332.575C579.119 333.172 578.296 333.641 577.335 333.983C576.374 334.315 575.264 334.48 574.005 334.48ZM576.026 329.61C577.065 329.61 577.981 329.405 578.777 328.997C579.572 328.577 580.196 328.014 580.649 327.307C581.102 326.6 581.328 325.799 581.328 324.904V322.204C581.107 322.347 580.803 322.48 580.417 322.601C580.041 322.712 579.616 322.817 579.141 322.916C578.666 323.005 578.191 323.087 577.716 323.165C577.241 323.231 576.811 323.292 576.424 323.347C575.596 323.468 574.872 323.662 574.254 323.927C573.635 324.192 573.155 324.551 572.812 325.004C572.47 325.446 572.299 325.998 572.299 326.66C572.299 327.621 572.647 328.356 573.342 328.864C574.049 329.361 574.944 329.61 576.026 329.61ZM610.131 323.165V308.552H617.189V334H610.413V329.378H610.148C609.573 330.869 608.618 332.067 607.281 332.973C605.956 333.879 604.338 334.331 602.427 334.331C600.726 334.331 599.229 333.945 597.937 333.172C596.645 332.398 595.634 331.299 594.905 329.875C594.187 328.45 593.823 326.743 593.812 324.755V308.552H600.87V323.496C600.881 324.998 601.284 326.186 602.079 327.058C602.874 327.931 603.94 328.367 605.277 328.367C606.127 328.367 606.922 328.174 607.662 327.787C608.402 327.389 608.999 326.804 609.452 326.031C609.916 325.258 610.142 324.302 610.131 323.165ZM629.892 319.288V334H622.834V308.552H629.561V313.042H629.859C630.422 311.562 631.367 310.391 632.692 309.529C634.018 308.657 635.625 308.221 637.513 308.221C639.281 308.221 640.821 308.607 642.136 309.38C643.45 310.154 644.472 311.258 645.201 312.694C645.93 314.119 646.294 315.82 646.294 317.797V334H639.236V319.056C639.247 317.499 638.85 316.284 638.044 315.411C637.237 314.527 636.127 314.086 634.713 314.086C633.764 314.086 632.924 314.29 632.195 314.699C631.477 315.107 630.914 315.704 630.505 316.488C630.108 317.261 629.903 318.194 629.892 319.288ZM663.355 334.497C660.748 334.497 658.506 333.945 656.628 332.84C654.762 331.725 653.326 330.178 652.321 328.201C651.327 326.224 650.83 323.949 650.83 321.375C650.83 318.769 651.332 316.482 652.337 314.516C653.353 312.539 654.795 310.998 656.662 309.894C658.528 308.778 660.748 308.221 663.322 308.221C665.542 308.221 667.486 308.624 669.154 309.43C670.821 310.236 672.141 311.368 673.113 312.826C674.085 314.284 674.621 315.996 674.72 317.962H668.06C667.872 316.692 667.375 315.671 666.569 314.897C665.774 314.113 664.73 313.721 663.438 313.721C662.344 313.721 661.389 314.019 660.571 314.616C659.765 315.201 659.136 316.057 658.683 317.184C658.23 318.31 658.003 319.674 658.003 321.276C658.003 322.9 658.224 324.28 658.666 325.418C659.119 326.556 659.754 327.423 660.571 328.019C661.389 328.615 662.344 328.914 663.438 328.914C664.244 328.914 664.967 328.748 665.608 328.417C666.26 328.085 666.795 327.605 667.215 326.975C667.646 326.335 667.928 325.567 668.06 324.672H674.72C674.61 326.616 674.08 328.328 673.13 329.808C672.191 331.277 670.893 332.426 669.236 333.254C667.58 334.083 665.619 334.497 663.355 334.497ZM686.297 319.288V334H679.239V300.069H686.098V313.042H686.396C686.971 311.54 687.899 310.363 689.18 309.513C690.461 308.651 692.068 308.221 694.001 308.221C695.768 308.221 697.309 308.607 698.623 309.38C699.949 310.142 700.976 311.241 701.705 312.677C702.445 314.102 702.81 315.809 702.798 317.797V334H695.741V319.056C695.752 317.487 695.354 316.267 694.548 315.394C693.753 314.522 692.637 314.086 691.201 314.086C690.24 314.086 689.39 314.29 688.65 314.699C687.921 315.107 687.346 315.704 686.927 316.488C686.518 317.261 686.308 318.194 686.297 319.288ZM717.295 300.069H725.331L733.068 314.682H733.399L741.136 300.069H749.172L736.795 322.005V334H729.671V322.005L717.295 300.069ZM759.125 334.497C756.551 334.497 754.325 333.95 752.448 332.857C750.581 331.752 749.14 330.217 748.124 328.251C747.107 326.274 746.599 323.982 746.599 321.375C746.599 318.747 747.107 316.449 748.124 314.483C749.14 312.506 750.581 310.971 752.448 309.877C754.325 308.773 756.551 308.221 759.125 308.221C761.698 308.221 763.918 308.773 765.785 309.877C767.663 310.971 769.109 312.506 770.126 314.483C771.142 316.449 771.65 318.747 771.65 321.375C771.65 323.982 771.142 326.274 770.126 328.251C769.109 330.217 767.663 331.752 765.785 332.857C763.918 333.95 761.698 334.497 759.125 334.497ZM759.158 329.03C760.329 329.03 761.306 328.698 762.09 328.036C762.874 327.362 763.465 326.445 763.863 325.285C764.272 324.126 764.476 322.806 764.476 321.326C764.476 319.846 764.272 318.526 763.863 317.366C763.465 316.206 762.874 315.29 762.09 314.616C761.306 313.942 760.329 313.605 759.158 313.605C757.976 313.605 756.982 313.942 756.176 314.616C755.38 315.29 754.778 316.206 754.37 317.366C753.972 318.526 753.773 319.846 753.773 321.326C753.773 322.806 753.972 324.126 754.37 325.285C754.778 326.445 755.38 327.362 756.176 328.036C756.982 328.698 757.976 329.03 759.158 329.03ZM792.558 323.165V308.552H799.616V334H792.84V329.378H792.575C792.001 330.869 791.045 332.067 789.709 332.973C788.383 333.879 786.765 334.331 784.854 334.331C783.153 334.331 781.657 333.945 780.364 333.172C779.072 332.398 778.062 331.299 777.333 329.875C776.615 328.45 776.25 326.743 776.239 324.755V308.552H783.297V323.496C783.308 324.998 783.711 326.186 784.506 327.058C785.302 327.931 786.367 328.367 787.704 328.367C788.554 328.367 789.35 328.174 790.09 327.787C790.83 327.389 791.426 326.804 791.879 326.031C792.343 325.258 792.569 324.302 792.558 323.165ZM805.262 334V308.552H812.104V312.992H812.369C812.833 311.413 813.612 310.22 814.705 309.413C815.799 308.596 817.058 308.187 818.483 308.187C818.836 308.187 819.217 308.21 819.626 308.254C820.034 308.298 820.393 308.359 820.703 308.436V314.699C820.371 314.599 819.913 314.511 819.328 314.434C818.742 314.356 818.206 314.318 817.721 314.318C816.682 314.318 815.754 314.544 814.937 314.997C814.131 315.439 813.49 316.057 813.015 316.852C812.551 317.648 812.319 318.564 812.319 319.603V334H805.262ZM555.149 390V356.069H568.735C571.231 356.069 573.313 356.439 574.981 357.179C576.648 357.919 577.902 358.947 578.741 360.261C579.581 361.564 580.001 363.066 580.001 364.767C580.001 366.093 579.735 367.258 579.205 368.263C578.675 369.257 577.946 370.075 577.018 370.715C576.102 371.345 575.052 371.792 573.871 372.057V372.389C575.163 372.444 576.372 372.808 577.499 373.482C578.636 374.156 579.559 375.1 580.266 376.315C580.973 377.519 581.326 378.955 581.326 380.623C581.326 382.423 580.879 384.03 579.984 385.444C579.1 386.847 577.792 387.957 576.057 388.774C574.323 389.591 572.186 390 569.646 390H555.149ZM562.323 384.135H568.171C570.17 384.135 571.628 383.754 572.545 382.992C573.462 382.219 573.92 381.191 573.92 379.91C573.92 378.971 573.694 378.143 573.241 377.425C572.788 376.707 572.142 376.144 571.303 375.735C570.474 375.327 569.486 375.122 568.337 375.122H562.323V384.135ZM562.323 370.268H567.641C568.624 370.268 569.497 370.097 570.259 369.754C571.032 369.401 571.639 368.904 572.081 368.263C572.534 367.623 572.76 366.855 572.76 365.96C572.76 364.734 572.324 363.746 571.452 362.995C570.59 362.244 569.364 361.868 567.774 361.868H562.323V370.268ZM585.861 390V364.552H592.704V368.992H592.969C593.433 367.413 594.212 366.22 595.305 365.413C596.398 364.596 597.658 364.187 599.082 364.187C599.436 364.187 599.817 364.21 600.226 364.254C600.634 364.298 600.993 364.359 601.303 364.436V370.699C600.971 370.599 600.513 370.511 599.927 370.434C599.342 370.356 598.806 370.318 598.32 370.318C597.282 370.318 596.354 370.544 595.537 370.997C594.731 371.439 594.09 372.057 593.615 372.852C593.151 373.648 592.919 374.564 592.919 375.603V390H585.861ZM611.479 390.48C609.856 390.48 608.409 390.199 607.139 389.636C605.868 389.061 604.863 388.216 604.123 387.101C603.394 385.974 603.03 384.571 603.03 382.892C603.03 381.479 603.289 380.291 603.808 379.33C604.328 378.369 605.034 377.596 605.929 377.011C606.824 376.426 607.84 375.984 608.978 375.685C610.126 375.387 611.33 375.177 612.589 375.056C614.069 374.901 615.262 374.758 616.168 374.625C617.074 374.482 617.731 374.272 618.139 373.996C618.548 373.719 618.752 373.311 618.752 372.77V372.67C618.752 371.621 618.421 370.809 617.758 370.235C617.107 369.66 616.179 369.373 614.975 369.373C613.705 369.373 612.694 369.655 611.943 370.218C611.192 370.77 610.695 371.466 610.452 372.306L603.924 371.776C604.256 370.229 604.907 368.893 605.879 367.766C606.851 366.628 608.105 365.756 609.64 365.148C611.187 364.53 612.976 364.221 615.008 364.221C616.422 364.221 617.775 364.386 619.067 364.718C620.371 365.049 621.525 365.563 622.53 366.258C623.546 366.954 624.347 367.849 624.932 368.942C625.518 370.025 625.81 371.323 625.81 372.836V390H619.117V386.471H618.918C618.509 387.266 617.963 387.968 617.278 388.575C616.593 389.172 615.77 389.641 614.809 389.983C613.848 390.315 612.738 390.48 611.479 390.48ZM613.501 385.61C614.539 385.61 615.455 385.405 616.251 384.997C617.046 384.577 617.67 384.014 618.123 383.307C618.576 382.6 618.802 381.799 618.802 380.904V378.204C618.581 378.347 618.278 378.48 617.891 378.601C617.515 378.712 617.09 378.817 616.615 378.916C616.14 379.005 615.665 379.087 615.19 379.165C614.715 379.231 614.285 379.292 613.898 379.347C613.07 379.468 612.346 379.662 611.728 379.927C611.109 380.192 610.629 380.551 610.286 381.004C609.944 381.446 609.773 381.998 609.773 382.66C609.773 383.621 610.121 384.356 610.817 384.864C611.523 385.361 612.418 385.61 613.501 385.61ZM638.344 375.288V390H631.286V364.552H638.012V369.042H638.311C638.874 367.562 639.818 366.391 641.144 365.529C642.469 364.657 644.076 364.221 645.965 364.221C647.732 364.221 649.273 364.607 650.587 365.38C651.902 366.154 652.923 367.258 653.652 368.694C654.381 370.119 654.746 371.82 654.746 373.797V390H647.688V375.056C647.699 373.499 647.301 372.284 646.495 371.411C645.689 370.527 644.579 370.086 643.165 370.086C642.215 370.086 641.376 370.29 640.647 370.699C639.929 371.107 639.365 371.704 638.957 372.488C638.559 373.261 638.355 374.194 638.344 375.288ZM669.686 390.414C667.753 390.414 666.002 389.917 664.434 388.923C662.876 387.918 661.639 386.443 660.723 384.5C659.817 382.545 659.364 380.148 659.364 377.309C659.364 374.393 659.834 371.969 660.772 370.036C661.711 368.092 662.959 366.64 664.517 365.679C666.085 364.707 667.803 364.221 669.669 364.221C671.094 364.221 672.281 364.464 673.231 364.95C674.192 365.425 674.965 366.021 675.551 366.739C676.147 367.446 676.6 368.142 676.909 368.826H677.125V356.069H684.166V390H677.208V385.924H676.909C676.578 386.631 676.109 387.333 675.501 388.028C674.905 388.713 674.126 389.282 673.165 389.735C672.215 390.188 671.055 390.414 669.686 390.414ZM671.922 384.798C673.06 384.798 674.021 384.488 674.805 383.87C675.6 383.24 676.208 382.362 676.628 381.236C677.058 380.109 677.274 378.789 677.274 377.276C677.274 375.763 677.064 374.448 676.644 373.333C676.225 372.217 675.617 371.356 674.822 370.748C674.027 370.141 673.06 369.837 671.922 369.837C670.763 369.837 669.785 370.152 668.99 370.781C668.195 371.411 667.593 372.284 667.184 373.399C666.775 374.515 666.571 375.807 666.571 377.276C666.571 378.756 666.775 380.065 667.184 381.203C667.604 382.329 668.206 383.213 668.99 383.853C669.785 384.483 670.763 384.798 671.922 384.798ZM708.537 390L698.828 356.069H706.665L712.281 379.645H712.563L718.759 356.069H725.469L731.649 379.695H731.947L737.564 356.069H745.4L735.692 390H728.7L722.239 367.816H721.974L715.529 390H708.537ZM749.107 390V364.552H756.165V390H749.107ZM752.653 361.272C751.604 361.272 750.703 360.924 749.952 360.228C749.212 359.521 748.842 358.676 748.842 357.693C748.842 356.721 749.212 355.887 749.952 355.191C750.703 354.484 751.604 354.131 752.653 354.131C753.702 354.131 754.597 354.484 755.337 355.191C756.088 355.887 756.463 356.721 756.463 357.693C756.463 358.676 756.088 359.521 755.337 360.228C754.597 360.924 753.702 361.272 752.653 361.272ZM775.355 364.552V369.854H760.03V364.552H775.355ZM763.509 358.455H770.567V382.18C770.567 382.832 770.666 383.34 770.865 383.704C771.064 384.058 771.34 384.306 771.693 384.45C772.058 384.593 772.477 384.665 772.952 384.665C773.284 384.665 773.615 384.638 773.946 384.582C774.278 384.516 774.532 384.466 774.709 384.433L775.819 389.685C775.465 389.796 774.968 389.923 774.328 390.066C773.687 390.221 772.908 390.315 771.992 390.348C770.291 390.414 768.799 390.188 767.518 389.669C766.248 389.15 765.259 388.343 764.553 387.25C763.846 386.156 763.498 384.776 763.509 383.108V358.455ZM787.557 375.288V390H780.499V356.069H787.358V369.042H787.656C788.231 367.54 789.158 366.363 790.44 365.513C791.721 364.651 793.328 364.221 795.261 364.221C797.028 364.221 798.569 364.607 799.883 365.38C801.209 366.142 802.236 367.241 802.965 368.677C803.705 370.102 804.069 371.809 804.058 373.797V390H797V375.056C797.012 373.487 796.614 372.267 795.808 371.394C795.012 370.522 793.897 370.086 792.461 370.086C791.5 370.086 790.65 370.29 789.91 370.699C789.181 371.107 788.606 371.704 788.186 372.488C787.778 373.261 787.568 374.194 787.557 375.288Z" fill="white"/>
<rect x="551" y="414.663" width="12.0141" height="96.3368" rx="6.00703" fill="#3333CC"/>
<path fill-rule="evenodd" clip-rule="evenodd" d="M583.766 511C601.862 511 616.531 496.296 616.531 478.158C616.531 460.02 601.862 445.316 583.766 445.316C565.67 445.316 551 460.02 551 478.158C551 496.296 565.67 511 583.766 511ZM583.766 498.958C595.226 498.958 604.517 489.645 604.517 478.158C604.517 466.67 595.226 457.358 583.766 457.358C572.305 457.358 563.014 466.67 563.014 478.158C563.014 489.645 572.305 498.958 583.766 498.958Z" fill="#3333CC"/>
<rect x="625.269" y="443.126" width="12.0141" height="67.8736" rx="6.00703" fill="#3333CC"/>
<path fill-rule="evenodd" clip-rule="evenodd" d="M659.126 452.996V442.037C658.945 442.033 658.763 442.031 658.58 442.031C645.008 442.031 634.006 452.324 634.006 465.021C634.006 466.536 634.163 468.018 634.462 469.451C636.688 460.341 646.811 453.386 659.126 452.996Z" fill="#3333CC"/>
<ellipse cx="659.126" cy="447.505" rx="5.46094" ry="5.47368" fill="#3333CC"/>
<rect x="673.325" y="443.126" width="12.0141" height="67.8736" rx="6.00703" fill="#3333CC"/>
<path d="M704.999 434.902C704.999 431.584 707.688 428.895 711.006 428.895V428.895C714.323 428.895 717.013 431.584 717.013 434.902V491.295H704.999V434.902Z" fill="#3333CC"/>
<rect x="694.077" y="442.031" width="33.8578" height="12.0421" rx="6.02105" fill="#3333CC"/>
<path fill-rule="evenodd" clip-rule="evenodd" d="M704.999 492.937C704.999 485.072 710.013 478.381 717.013 475.902V492.923L717.013 492.937L717.013 492.951V493.484H717.037C717.297 496.373 719.592 498.673 722.474 498.933V510.992C712.773 510.703 704.999 502.73 704.999 492.937Z" fill="#3333CC"/>
<ellipse cx="722.473" cy="504.979" rx="6.00703" ry="6.02105" fill="#3333CC"/>
<path fill-rule="evenodd" clip-rule="evenodd" d="M800.46 457.711C803.846 462.927 805.74 468.931 805.996 475.077C806.134 478.394 803.054 480.719 799.763 480.279L796.768 479.879C795.138 479.661 794.012 478.161 794.012 476.516V476.516C794.012 464.121 783.987 454.074 771.622 454.074C759.256 454.074 749.232 464.121 749.232 476.516C749.232 488.91 759.256 498.958 771.622 498.958C776.003 498.958 780.091 497.696 783.542 495.516C786.355 493.74 790.139 493.481 792.591 495.728V495.728C795.037 497.968 795.233 501.816 792.608 503.841C787.744 507.594 781.935 509.998 775.769 510.748C767.608 511.742 759.36 509.773 752.522 505.198C745.683 500.622 740.706 493.744 738.49 485.808C736.275 477.871 736.968 469.402 740.445 461.934C743.922 454.466 749.951 448.493 757.443 445.096C764.934 441.7 773.391 441.105 781.282 443.419C789.173 445.733 795.977 450.803 800.46 457.711Z" fill="#3333CC"/>
<path d="M740.494 474.326C740.494 471.001 743.19 468.305 746.515 468.305H798.912C802.237 468.305 804.933 471.001 804.933 474.326V474.326C804.933 477.652 802.237 480.347 798.912 480.347H746.515C743.19 480.347 740.494 477.652 740.494 474.326V474.326Z" fill="#3333CC"/>
<rect x="796.196" y="478.158" width="4.36876" height="2.18948" fill="#3333CC"/>
<rect x="673.325" y="407" width="12.014" height="29.5579" rx="6.00702" fill="#9FB7FF"/>
<rect width="12.03" height="29.5308" rx="6.01502" transform="matrix(0.847446 -0.530883 0.528957 0.848649 648.482 417.598)" fill="#9FB7FF"/>
<rect width="12.03" height="29.5308" rx="6.01502" transform="matrix(0.847446 0.530883 -0.528957 0.848649 699.987 411.212)" fill="#9FB7FF"/>
<defs>
<linearGradient id="paint0_linear_37_134" x1="77.499" y1="169" x2="474.999" y2="678" gradientUnits="userSpaceOnUse">
<stop stop-color="#6392F5"/>
<stop offset="1" stop-color="#B684DE"/>
</linearGradient>
</defs>
</svg>
