<svg width="835" height="615" viewBox="0 0 835 615" fill="none" xmlns="http://www.w3.org/2000/svg">
<rect x="576.244" y="443.741" width="10.9218" height="87.7844" rx="5.46088" fill="#3333CC"/>
<path fill-rule="evenodd" clip-rule="evenodd" d="M606.03 531.526C622.481 531.526 635.817 518.127 635.817 501.599C635.817 485.071 622.481 471.673 606.03 471.673C589.58 471.673 576.244 485.071 576.244 501.599C576.244 518.127 589.58 531.526 606.03 531.526ZM606.03 520.553C616.449 520.553 624.895 512.067 624.895 501.599C624.895 491.132 616.449 482.646 606.03 482.646C595.612 482.646 587.166 491.132 587.166 501.599C587.166 512.067 595.612 520.553 606.03 520.553Z" fill="#3333CC"/>
<rect x="643.76" y="469.678" width="10.9218" height="61.8481" rx="5.46088" fill="#3333CC"/>
<path fill-rule="evenodd" clip-rule="evenodd" d="M674.539 478.671V468.685C674.374 468.682 674.209 468.68 674.043 468.68C661.705 468.68 651.703 478.059 651.703 489.628C651.703 491.009 651.846 492.359 652.118 493.665C654.141 485.364 663.344 479.027 674.539 478.671Z" fill="#3333CC"/>
<ellipse cx="674.539" cy="473.668" rx="4.96443" ry="4.98775" fill="#3333CC"/>
<rect x="687.447" y="469.677" width="10.9218" height="61.8481" rx="5.46088" fill="#3333CC"/>
<path d="M716.241 462.17C716.241 459.154 718.686 456.709 721.702 456.709V456.709C724.718 456.709 727.162 459.154 727.162 462.17V513.57H716.241V462.17Z" fill="#3333CC"/>
<rect x="706.312" y="468.68" width="30.7795" height="10.9731" rx="5.48653" fill="#3333CC"/>
<path fill-rule="evenodd" clip-rule="evenodd" d="M716.241 515.066C716.241 507.899 720.8 501.802 727.163 499.543V515.022L727.162 515.066L727.163 515.11V515.564H727.185C727.421 518.197 729.507 520.293 732.126 520.53V531.518C723.308 531.254 716.241 523.989 716.241 515.066Z" fill="#3333CC"/>
<ellipse cx="732.127" cy="526.039" rx="5.46088" ry="5.48653" fill="#3333CC"/>
<path fill-rule="evenodd" clip-rule="evenodd" d="M803.023 482.967C806.103 487.723 807.825 493.198 808.056 498.801C808.18 501.818 805.379 503.933 802.386 503.532L799.673 503.168C798.187 502.969 797.161 501.602 797.161 500.103V500.103C797.161 488.809 788.048 479.653 776.807 479.653C765.566 479.653 756.453 488.809 756.453 500.103C756.453 511.397 765.566 520.553 776.807 520.553C780.785 520.553 784.497 519.406 787.633 517.424C790.195 515.803 793.646 515.567 795.879 517.618V517.618C798.098 519.656 798.277 523.151 795.895 524.995C791.471 528.419 786.187 530.612 780.577 531.296C773.157 532.202 765.66 530.407 759.443 526.238C753.227 522.07 748.702 515.802 746.688 508.57C744.674 501.338 745.304 493.621 748.464 486.816C751.625 480.011 757.107 474.568 763.917 471.473C770.727 468.378 778.415 467.836 785.589 469.944C792.762 472.053 798.947 476.673 803.023 482.967Z" fill="#3333CC"/>
<path d="M748.509 498.108C748.509 495.078 750.966 492.621 753.996 492.621H801.603C804.633 492.621 807.09 495.078 807.09 498.108V498.108C807.09 501.138 804.633 503.594 801.603 503.594H753.996C750.966 503.594 748.509 501.138 748.509 498.108V498.108Z" fill="#3333CC"/>
<rect x="799.146" y="501.599" width="3.97155" height="1.9951" fill="#3333CC"/>
<rect x="687.447" y="436.758" width="10.9218" height="26.9339" rx="5.46088" fill="#3333CC"/>
<rect width="10.951" height="26.8844" rx="5.4755" transform="matrix(0.846835 -0.531857 0.527984 0.849255 664.863 446.42)" fill="#3333CC"/>
<rect width="10.951" height="26.8844" rx="5.4755" transform="matrix(0.846835 0.531857 -0.527984 0.849255 711.679 440.596)" fill="#3333CC"/>
<path d="M607.187 91.9488C607.133 90.8774 606.775 89.8435 606.155 88.9682C605.535 88.093 604.678 87.4127 603.685 87.0071C537.534 59.5496 369.398 94.8502 270.006 167.554C252.297 180.404 235.741 194.772 220.527 210.497C194.35 204.039 167.505 201.889 143.357 208.246C75.1835 226.453 45.25 296.872 35.1903 327.6C34.6294 329.28 34.466 331.068 34.7129 332.822C34.9598 334.576 35.6104 336.249 36.6133 337.709C37.6163 339.169 38.9444 340.377 40.4931 341.237C42.0418 342.097 43.7689 342.586 45.5385 342.665L149.78 347.233C148.656 354.972 147.927 362.762 147.595 370.575C147.285 375.988 148.881 381.338 152.105 385.697L185.662 431.439C188.846 435.826 193.461 438.964 198.712 440.311C206.216 442.348 213.82 444.003 221.492 445.269L194.394 545.889C193.937 547.6 193.882 549.393 194.234 551.129C194.587 552.864 195.336 554.494 196.424 555.891C197.512 557.288 198.909 558.414 200.505 559.181C202.101 559.947 203.853 560.334 205.623 560.31C237.876 560.136 314.18 552.925 351.99 493.426C365.354 472.333 371.463 446.233 373.276 419.469C392.909 409.73 411.656 398.299 429.305 385.305C528.946 312.772 612.562 166.682 607.187 91.9488ZM359.036 269.486C352.373 260.387 348.558 249.515 348.073 238.247C347.589 226.979 350.457 215.82 356.316 206.183C362.174 196.545 370.759 188.861 380.985 184.103C391.211 179.345 402.618 177.727 413.764 179.453C424.91 181.179 435.293 186.172 443.601 193.8C451.909 201.429 457.768 211.349 460.436 222.307C463.105 233.266 462.464 244.769 458.594 255.363C454.724 265.957 447.799 275.165 438.695 281.823C432.657 286.249 425.805 289.44 418.532 291.216C411.259 292.991 403.707 293.315 396.308 292.169C388.91 291.024 381.81 288.43 375.414 284.538C369.019 280.646 363.453 275.531 359.036 269.486Z" fill="#001C6D"/>
<path d="M195.442 445.785C188.153 451.422 177.473 452.611 164.731 453.163C136.112 454.332 114.496 426.951 123.169 399.287C126.47 388.801 134.085 374.487 138.074 371.407C138.944 370.749 139.584 369.833 139.905 368.79C140.225 367.747 140.208 366.63 139.857 365.597C139.506 364.564 138.838 363.668 137.949 363.036C137.06 362.404 135.994 362.068 134.903 362.077C118.996 361.978 103.513 367.203 90.9194 376.922C59.6543 401.08 43.8046 503.608 43.8046 503.608C43.8046 503.608 147.065 514.234 178.33 490.076C190.953 480.366 199.939 466.689 203.841 451.249C204.91 446.38 199.291 442.675 195.442 445.785Z" fill="#001C6D"/>
<path d="M553.412 352V318.069H560.586V346.085H575.132V352H553.412ZM587.007 352.48C585.383 352.48 583.937 352.199 582.666 351.636C581.396 351.061 580.391 350.216 579.651 349.101C578.922 347.974 578.558 346.571 578.558 344.892C578.558 343.479 578.817 342.291 579.336 341.33C579.855 340.369 580.562 339.596 581.457 339.011C582.352 338.426 583.368 337.984 584.505 337.685C585.654 337.387 586.858 337.177 588.117 337.056C589.597 336.901 590.79 336.758 591.696 336.625C592.601 336.482 593.259 336.272 593.667 335.996C594.076 335.719 594.28 335.311 594.28 334.77V334.67C594.28 333.621 593.949 332.809 593.286 332.235C592.635 331.66 591.707 331.373 590.503 331.373C589.233 331.373 588.222 331.655 587.471 332.218C586.72 332.77 586.223 333.466 585.98 334.306L579.452 333.776C579.784 332.229 580.435 330.893 581.407 329.766C582.379 328.628 583.633 327.756 585.168 327.148C586.714 326.53 588.504 326.221 590.536 326.221C591.95 326.221 593.303 326.386 594.595 326.718C595.898 327.049 597.053 327.563 598.058 328.258C599.074 328.954 599.875 329.849 600.46 330.942C601.045 332.025 601.338 333.323 601.338 334.836V352H594.645V348.471H594.446C594.037 349.266 593.491 349.968 592.806 350.575C592.121 351.172 591.298 351.641 590.337 351.983C589.376 352.315 588.266 352.48 587.007 352.48ZM589.028 347.61C590.067 347.61 590.983 347.405 591.779 346.997C592.574 346.577 593.198 346.014 593.651 345.307C594.104 344.6 594.33 343.799 594.33 342.904V340.204C594.109 340.347 593.805 340.48 593.419 340.601C593.043 340.712 592.618 340.817 592.143 340.916C591.668 341.005 591.193 341.087 590.718 341.165C590.243 341.231 589.813 341.292 589.426 341.347C588.598 341.468 587.874 341.662 587.256 341.927C586.637 342.192 586.157 342.551 585.814 343.004C585.472 343.446 585.301 343.998 585.301 344.66C585.301 345.621 585.649 346.356 586.344 346.864C587.051 347.361 587.946 347.61 589.028 347.61ZM623.133 341.165V326.552H630.191V352H623.415V347.378H623.15C622.575 348.869 621.62 350.067 620.283 350.973C618.958 351.879 617.34 352.331 615.429 352.331C613.728 352.331 612.231 351.945 610.939 351.172C609.647 350.398 608.636 349.299 607.907 347.875C607.189 346.45 606.825 344.743 606.814 342.755V326.552H613.872V341.496C613.883 342.998 614.286 344.186 615.081 345.058C615.876 345.931 616.942 346.367 618.279 346.367C619.129 346.367 619.924 346.174 620.664 345.787C621.404 345.389 622.001 344.804 622.454 344.031C622.918 343.258 623.144 342.302 623.133 341.165ZM642.894 337.288V352H635.836V326.552H642.563V331.042H642.861C643.424 329.562 644.369 328.391 645.694 327.529C647.02 326.657 648.627 326.221 650.515 326.221C652.283 326.221 653.823 326.607 655.138 327.38C656.452 328.154 657.474 329.258 658.203 330.694C658.932 332.119 659.296 333.82 659.296 335.797V352H652.238V337.056C652.249 335.499 651.852 334.284 651.045 333.411C650.239 332.527 649.129 332.086 647.715 332.086C646.765 332.086 645.926 332.29 645.197 332.699C644.479 333.107 643.916 333.704 643.507 334.488C643.11 335.261 642.905 336.194 642.894 337.288ZM676.357 352.497C673.75 352.497 671.508 351.945 669.63 350.84C667.764 349.725 666.328 348.178 665.323 346.201C664.329 344.224 663.832 341.949 663.832 339.375C663.832 336.769 664.334 334.482 665.339 332.516C666.355 330.539 667.797 328.998 669.663 327.894C671.53 326.778 673.75 326.221 676.324 326.221C678.544 326.221 680.488 326.624 682.156 327.43C683.823 328.236 685.143 329.368 686.115 330.826C687.087 332.284 687.623 333.996 687.722 335.962H681.062C680.874 334.692 680.377 333.671 679.571 332.897C678.776 332.113 677.732 331.721 676.44 331.721C675.346 331.721 674.391 332.019 673.573 332.616C672.767 333.201 672.138 334.057 671.685 335.184C671.232 336.31 671.005 337.674 671.005 339.276C671.005 340.9 671.226 342.28 671.668 343.418C672.121 344.556 672.756 345.423 673.573 346.019C674.391 346.615 675.346 346.914 676.44 346.914C677.246 346.914 677.969 346.748 678.61 346.417C679.262 346.085 679.797 345.605 680.217 344.975C680.648 344.335 680.93 343.567 681.062 342.672H687.722C687.612 344.616 687.082 346.328 686.132 347.808C685.193 349.277 683.895 350.426 682.238 351.254C680.582 352.083 678.621 352.497 676.357 352.497ZM699.299 337.288V352H692.241V318.069H699.1V331.042H699.398C699.973 329.54 700.901 328.363 702.182 327.513C703.463 326.651 705.07 326.221 707.003 326.221C708.77 326.221 710.311 326.607 711.625 327.38C712.951 328.142 713.978 329.241 714.707 330.677C715.447 332.102 715.811 333.809 715.8 335.797V352H708.743V337.056C708.754 335.487 708.356 334.267 707.55 333.394C706.754 332.522 705.639 332.086 704.203 332.086C703.242 332.086 702.392 332.29 701.652 332.699C700.923 333.107 700.348 333.704 699.929 334.488C699.52 335.261 699.31 336.194 699.299 337.288ZM730.297 318.069H738.333L746.07 332.682H746.401L754.138 318.069H762.174L749.797 340.005V352H742.673V340.005L730.297 318.069ZM772.127 352.497C769.553 352.497 767.327 351.95 765.45 350.857C763.583 349.752 762.142 348.217 761.126 346.251C760.109 344.274 759.601 341.982 759.601 339.375C759.601 336.747 760.109 334.449 761.126 332.483C762.142 330.506 763.583 328.971 765.45 327.877C767.327 326.773 769.553 326.221 772.127 326.221C774.7 326.221 776.92 326.773 778.787 327.877C780.664 328.971 782.111 330.506 783.128 332.483C784.144 334.449 784.652 336.747 784.652 339.375C784.652 341.982 784.144 344.274 783.128 346.251C782.111 348.217 780.664 349.752 778.787 350.857C776.92 351.95 774.7 352.497 772.127 352.497ZM772.16 347.03C773.33 347.03 774.308 346.698 775.092 346.036C775.876 345.362 776.467 344.445 776.865 343.285C777.274 342.126 777.478 340.806 777.478 339.326C777.478 337.846 777.274 336.526 776.865 335.366C776.467 334.206 775.876 333.29 775.092 332.616C774.308 331.942 773.33 331.605 772.16 331.605C770.978 331.605 769.984 331.942 769.178 332.616C768.382 333.29 767.78 334.206 767.372 335.366C766.974 336.526 766.775 337.846 766.775 339.326C766.775 340.806 766.974 342.126 767.372 343.285C767.78 344.445 768.382 345.362 769.178 346.036C769.984 346.698 770.978 347.03 772.16 347.03ZM805.56 341.165V326.552H812.618V352H805.842V347.378H805.577C805.002 348.869 804.047 350.067 802.711 350.973C801.385 351.879 799.767 352.331 797.856 352.331C796.155 352.331 794.659 351.945 793.366 351.172C792.074 350.398 791.063 349.299 790.334 347.875C789.617 346.45 789.252 344.743 789.241 342.755V326.552H796.299V341.496C796.31 342.998 796.713 344.186 797.508 345.058C798.304 345.931 799.369 346.367 800.706 346.367C801.556 346.367 802.352 346.174 803.092 345.787C803.832 345.389 804.428 344.804 804.881 344.031C805.345 343.258 805.571 342.302 805.56 341.165ZM818.264 352V326.552H825.106V330.992H825.371C825.835 329.413 826.614 328.22 827.707 327.413C828.801 326.596 830.06 326.187 831.485 326.187C831.838 326.187 832.219 326.21 832.628 326.254C833.036 326.298 833.395 326.359 833.705 326.436V332.699C833.373 332.599 832.915 332.511 832.33 332.434C831.744 332.356 831.208 332.318 830.722 332.318C829.684 332.318 828.756 332.544 827.939 332.997C827.133 333.439 826.492 334.057 826.017 334.852C825.553 335.648 825.321 336.564 825.321 337.603V352H818.264ZM568.151 408V374.069H581.736C584.233 374.069 586.315 374.439 587.982 375.179C589.65 375.919 590.904 376.947 591.743 378.261C592.583 379.564 593.003 381.066 593.003 382.767C593.003 384.093 592.737 385.258 592.207 386.263C591.677 387.257 590.948 388.075 590.02 388.715C589.104 389.345 588.054 389.792 586.872 390.057V390.389C588.165 390.444 589.374 390.808 590.501 391.482C591.638 392.156 592.561 393.1 593.268 394.315C593.974 395.519 594.328 396.955 594.328 398.623C594.328 400.423 593.881 402.03 592.986 403.444C592.102 404.847 590.793 405.957 589.059 406.774C587.325 407.591 585.188 408 582.648 408H568.151ZM575.325 402.135H581.173C583.172 402.135 584.63 401.754 585.547 400.992C586.464 400.219 586.922 399.191 586.922 397.91C586.922 396.971 586.696 396.143 586.243 395.425C585.79 394.707 585.144 394.144 584.304 393.735C583.476 393.327 582.488 393.122 581.339 393.122H575.325V402.135ZM575.325 388.268H580.643C581.626 388.268 582.499 388.097 583.261 387.754C584.034 387.401 584.641 386.904 585.083 386.263C585.536 385.623 585.762 384.855 585.762 383.96C585.762 382.734 585.326 381.746 584.454 380.995C583.592 380.244 582.366 379.868 580.776 379.868H575.325V388.268ZM598.863 408V382.552H605.706V386.992H605.971C606.435 385.413 607.213 384.22 608.307 383.413C609.4 382.596 610.66 382.187 612.084 382.187C612.438 382.187 612.819 382.21 613.228 382.254C613.636 382.298 613.995 382.359 614.304 382.436V388.699C613.973 388.599 613.515 388.511 612.929 388.434C612.344 388.356 611.808 388.318 611.322 388.318C610.284 388.318 609.356 388.544 608.539 388.997C607.733 389.439 607.092 390.057 606.617 390.852C606.153 391.648 605.921 392.564 605.921 393.603V408H598.863ZM624.481 408.48C622.858 408.48 621.411 408.199 620.14 407.636C618.87 407.061 617.865 406.216 617.125 405.101C616.396 403.974 616.032 402.571 616.032 400.892C616.032 399.479 616.291 398.291 616.81 397.33C617.329 396.369 618.036 395.596 618.931 395.011C619.826 394.426 620.842 393.984 621.979 393.685C623.128 393.387 624.332 393.177 625.591 393.056C627.071 392.901 628.264 392.758 629.17 392.625C630.076 392.482 630.733 392.272 631.141 391.996C631.55 391.719 631.754 391.311 631.754 390.77V390.67C631.754 389.621 631.423 388.809 630.76 388.235C630.109 387.66 629.181 387.373 627.977 387.373C626.707 387.373 625.696 387.655 624.945 388.218C624.194 388.77 623.697 389.466 623.454 390.306L616.926 389.776C617.258 388.229 617.909 386.893 618.881 385.766C619.853 384.628 621.107 383.756 622.642 383.148C624.189 382.53 625.978 382.221 628.01 382.221C629.424 382.221 630.777 382.386 632.069 382.718C633.373 383.049 634.527 383.563 635.532 384.258C636.548 384.954 637.349 385.849 637.934 386.942C638.52 388.025 638.812 389.323 638.812 390.836V408H632.119V404.471H631.92C631.511 405.266 630.965 405.968 630.28 406.575C629.595 407.172 628.772 407.641 627.811 407.983C626.85 408.315 625.74 408.48 624.481 408.48ZM626.502 403.61C627.541 403.61 628.457 403.405 629.253 402.997C630.048 402.577 630.672 402.014 631.125 401.307C631.578 400.6 631.804 399.799 631.804 398.904V396.204C631.583 396.347 631.279 396.48 630.893 396.601C630.517 396.712 630.092 396.817 629.617 396.916C629.142 397.005 628.667 397.087 628.192 397.165C627.717 397.231 627.287 397.292 626.9 397.347C626.072 397.468 625.348 397.662 624.73 397.927C624.111 398.192 623.631 398.551 623.288 399.004C622.946 399.446 622.775 399.998 622.775 400.66C622.775 401.621 623.123 402.356 623.818 402.864C624.525 403.361 625.42 403.61 626.502 403.61ZM651.346 393.288V408H644.288V382.552H651.014V387.042H651.313C651.876 385.562 652.82 384.391 654.146 383.529C655.471 382.657 657.078 382.221 658.967 382.221C660.734 382.221 662.275 382.607 663.589 383.38C664.904 384.154 665.925 385.258 666.654 386.694C667.383 388.119 667.748 389.82 667.748 391.797V408H660.69V393.056C660.701 391.499 660.303 390.284 659.497 389.411C658.691 388.527 657.581 388.086 656.167 388.086C655.217 388.086 654.378 388.29 653.649 388.699C652.931 389.107 652.367 389.704 651.959 390.488C651.561 391.261 651.357 392.194 651.346 393.288ZM682.688 408.414C680.755 408.414 679.004 407.917 677.436 406.923C675.878 405.918 674.641 404.443 673.725 402.5C672.819 400.545 672.366 398.148 672.366 395.309C672.366 392.393 672.835 389.969 673.774 388.036C674.713 386.092 675.961 384.64 677.519 383.679C679.087 382.707 680.805 382.221 682.671 382.221C684.096 382.221 685.283 382.464 686.233 382.95C687.194 383.425 687.967 384.021 688.553 384.739C689.149 385.446 689.602 386.142 689.911 386.826H690.127V374.069H697.168V408H690.21V403.924H689.911C689.58 404.631 689.111 405.333 688.503 406.028C687.907 406.713 687.128 407.282 686.167 407.735C685.217 408.188 684.057 408.414 682.688 408.414ZM684.924 402.798C686.062 402.798 687.023 402.488 687.807 401.87C688.602 401.24 689.21 400.362 689.63 399.236C690.06 398.109 690.276 396.789 690.276 395.276C690.276 393.763 690.066 392.448 689.646 391.333C689.226 390.217 688.619 389.356 687.824 388.748C687.029 388.141 686.062 387.837 684.924 387.837C683.765 387.837 682.787 388.152 681.992 388.781C681.197 389.411 680.595 390.284 680.186 391.399C679.777 392.515 679.573 393.807 679.573 395.276C679.573 396.756 679.777 398.065 680.186 399.203C680.606 400.329 681.208 401.213 681.992 401.853C682.787 402.483 683.765 402.798 684.924 402.798ZM721.539 408L711.83 374.069H719.667L725.283 397.645H725.565L731.761 374.069H738.471L744.651 397.695H744.949L750.566 374.069H758.402L748.694 408H741.702L735.241 385.816H734.976L728.531 408H721.539ZM762.109 408V382.552H769.167V408H762.109ZM765.655 379.272C764.606 379.272 763.705 378.924 762.954 378.228C762.214 377.521 761.844 376.676 761.844 375.693C761.844 374.721 762.214 373.887 762.954 373.191C763.705 372.484 764.606 372.131 765.655 372.131C766.704 372.131 767.599 372.484 768.339 373.191C769.09 373.887 769.465 374.721 769.465 375.693C769.465 376.676 769.09 377.521 768.339 378.228C767.599 378.924 766.704 379.272 765.655 379.272ZM788.357 382.552V387.854H773.032V382.552H788.357ZM776.511 376.455H783.569V400.18C783.569 400.832 783.668 401.34 783.867 401.704C784.066 402.058 784.342 402.306 784.695 402.45C785.06 402.593 785.479 402.665 785.954 402.665C786.286 402.665 786.617 402.638 786.948 402.582C787.28 402.516 787.534 402.466 787.711 402.433L788.821 407.685C788.467 407.796 787.97 407.923 787.33 408.066C786.689 408.221 785.91 408.315 784.993 408.348C783.293 408.414 781.801 408.188 780.52 407.669C779.25 407.15 778.261 406.343 777.555 405.25C776.848 404.156 776.5 402.776 776.511 401.108V376.455ZM800.559 393.288V408H793.501V374.069H800.36V387.042H800.658C801.233 385.54 802.16 384.363 803.442 383.513C804.723 382.651 806.33 382.221 808.263 382.221C810.03 382.221 811.571 382.607 812.885 383.38C814.211 384.142 815.238 385.241 815.967 386.677C816.707 388.102 817.071 389.809 817.06 391.797V408H810.002V393.056C810.013 391.487 809.616 390.267 808.81 389.394C808.014 388.522 806.899 388.086 805.463 388.086C804.502 388.086 803.651 388.29 802.911 388.699C802.182 389.107 801.608 389.704 801.188 390.488C800.78 391.261 800.57 392.194 800.559 393.288Z" fill="#001C6D"/>
</svg>
