<svg width="388" height="565" viewBox="0 0 388 565" fill="none" xmlns="http://www.w3.org/2000/svg">
<g filter="url(#filter0_d_2798_751)">
<rect x="16" y="11" width="356" height="533.514" rx="50.8571" fill="white" shape-rendering="crispEdges"/>
<rect x="42.6992" y="37.6999" width="302.6" height="302.6" rx="39.4143" fill="url(#paint0_linear_2798_751)" stroke="#D4D4D4" stroke-width="2.54286"/>
<path d="M42.5733 366.239H48.627L55.8655 379.329H56.1545L63.3929 366.239H69.4467L58.6829 384.79V395.829H53.3371V384.79L42.5733 366.239ZM78.5598 396.262C76.3926 396.262 74.5143 395.785 72.925 394.832C71.3357 393.878 70.1028 392.544 69.2263 390.83C68.3594 389.115 67.926 387.112 67.926 384.819C67.926 382.527 68.3594 380.518 69.2263 378.794C70.1028 377.07 71.3357 375.731 72.925 374.778C74.5143 373.824 76.3926 373.347 78.5598 373.347C80.727 373.347 82.6052 373.824 84.1945 374.778C85.7838 375.731 87.0119 377.07 87.8788 378.794C88.7553 380.518 89.1935 382.527 89.1935 384.819C89.1935 387.112 88.7553 389.115 87.8788 390.83C87.0119 392.544 85.7838 393.878 84.1945 394.832C82.6052 395.785 80.727 396.262 78.5598 396.262ZM78.5887 392.072C79.7638 392.072 80.7462 391.749 81.5361 391.104C82.3259 390.449 82.9135 389.573 83.2987 388.475C83.6936 387.377 83.8911 386.153 83.8911 384.805C83.8911 383.447 83.6936 382.219 83.2987 381.12C82.9135 380.013 82.3259 379.131 81.5361 378.477C80.7462 377.822 79.7638 377.494 78.5887 377.494C77.3847 377.494 76.3829 377.822 75.5835 378.477C74.7936 379.131 74.2013 380.013 73.8064 381.12C73.4211 382.219 73.2284 383.447 73.2284 384.805C73.2284 386.153 73.4211 387.377 73.8064 388.475C74.2013 389.573 74.7936 390.449 75.5835 391.104C76.3829 391.749 77.3847 392.072 78.5887 392.072ZM107.777 386.495V373.636H113.008V395.829H107.936V391.884H107.705C107.204 393.127 106.381 394.143 105.234 394.933C104.098 395.723 102.696 396.118 101.03 396.118C99.5757 396.118 98.2898 395.795 97.1725 395.15C96.0648 394.495 95.1979 393.546 94.5718 392.303C93.9457 391.051 93.6327 389.539 93.6327 387.767V373.636H98.8629V386.958C98.8629 388.364 99.2482 389.481 100.019 390.309C100.789 391.138 101.801 391.552 103.053 391.552C103.823 391.552 104.57 391.364 105.292 390.989C106.015 390.613 106.607 390.054 107.069 389.313C107.541 388.561 107.777 387.622 107.777 386.495ZM118.386 395.829V373.636H123.457V377.335H123.688C124.093 376.054 124.786 375.067 125.769 374.373C126.761 373.67 127.893 373.319 129.164 373.319C129.453 373.319 129.776 373.333 130.132 373.362C130.498 373.381 130.802 373.415 131.042 373.463V378.274C130.821 378.197 130.469 378.13 129.988 378.072C129.516 378.005 129.058 377.971 128.615 377.971C127.661 377.971 126.804 378.178 126.043 378.592C125.292 378.997 124.7 379.56 124.266 380.283C123.833 381.005 123.616 381.838 123.616 382.782V395.829H118.386ZM144.84 395.829V366.239H156.167C158.306 366.239 160.083 366.576 161.499 367.25C162.924 367.915 163.989 368.825 164.692 369.981C165.405 371.137 165.761 372.447 165.761 373.911C165.761 375.115 165.53 376.146 165.067 377.003C164.605 377.85 163.984 378.539 163.204 379.069C162.423 379.599 161.552 379.979 160.589 380.21V380.499C161.638 380.557 162.645 380.88 163.608 381.467C164.581 382.045 165.376 382.864 165.992 383.923C166.609 384.983 166.917 386.264 166.917 387.767C166.917 389.298 166.546 390.675 165.804 391.899C165.063 393.112 163.945 394.071 162.452 394.774C160.959 395.477 159.081 395.829 156.818 395.829H144.84ZM150.2 391.35H155.965C157.911 391.35 159.312 390.979 160.17 390.237C161.036 389.486 161.47 388.523 161.47 387.348C161.47 386.471 161.253 385.681 160.82 384.978C160.386 384.265 159.77 383.707 158.97 383.302C158.171 382.888 157.217 382.681 156.11 382.681H150.2V391.35ZM150.2 378.823H155.503C156.428 378.823 157.261 378.655 158.002 378.318C158.744 377.971 159.327 377.484 159.751 376.858C160.184 376.223 160.401 375.471 160.401 374.604C160.401 373.458 159.996 372.514 159.187 371.773C158.388 371.031 157.198 370.66 155.618 370.66H150.2V378.823ZM171.349 395.829V373.636H176.42V377.335H176.651C177.056 376.054 177.749 375.067 178.732 374.373C179.724 373.67 180.856 373.319 182.127 373.319C182.416 373.319 182.739 373.333 183.095 373.362C183.461 373.381 183.764 373.415 184.005 373.463V378.274C183.784 378.197 183.432 378.13 182.951 378.072C182.479 378.005 182.021 377.971 181.578 377.971C180.624 377.971 179.767 378.178 179.006 378.592C178.255 378.997 177.663 379.56 177.229 380.283C176.796 381.005 176.579 381.838 176.579 382.782V395.829H171.349ZM193.469 396.277C192.062 396.277 190.796 396.026 189.669 395.525C188.552 395.015 187.665 394.263 187.01 393.271C186.365 392.279 186.042 391.056 186.042 389.602C186.042 388.349 186.274 387.314 186.736 386.495C187.198 385.676 187.829 385.021 188.629 384.53C189.428 384.039 190.329 383.668 191.33 383.418C192.342 383.158 193.387 382.97 194.466 382.854C195.766 382.719 196.821 382.599 197.63 382.493C198.439 382.377 199.026 382.204 199.392 381.973C199.768 381.732 199.956 381.361 199.956 380.86V380.774C199.956 379.685 199.633 378.843 198.988 378.245C198.343 377.648 197.413 377.35 196.199 377.35C194.918 377.35 193.902 377.629 193.151 378.188C192.409 378.746 191.908 379.406 191.648 380.167L186.765 379.473C187.15 378.125 187.786 376.998 188.672 376.093C189.558 375.178 190.642 374.494 191.923 374.041C193.204 373.579 194.62 373.347 196.171 373.347C197.24 373.347 198.304 373.473 199.364 373.723C200.423 373.974 201.391 374.388 202.268 374.966C203.144 375.534 203.847 376.309 204.377 377.292C204.916 378.274 205.186 379.502 205.186 380.976V395.829H200.158V392.78H199.985C199.667 393.397 199.219 393.974 198.641 394.514C198.073 395.044 197.355 395.472 196.488 395.8C195.631 396.118 194.625 396.277 193.469 396.277ZM194.827 392.433C195.877 392.433 196.787 392.226 197.558 391.812C198.328 391.388 198.92 390.83 199.335 390.136C199.758 389.443 199.97 388.686 199.97 387.868V385.253C199.807 385.387 199.527 385.513 199.132 385.628C198.747 385.744 198.314 385.845 197.832 385.932C197.35 386.018 196.874 386.095 196.402 386.163C195.93 386.23 195.52 386.288 195.174 386.336C194.393 386.442 193.695 386.616 193.079 386.856C192.462 387.097 191.976 387.434 191.619 387.868C191.263 388.292 191.085 388.841 191.085 389.515C191.085 390.478 191.436 391.205 192.14 391.696C192.843 392.188 193.738 392.433 194.827 392.433ZM215.675 382.825V395.829H210.445V373.636H215.444V377.407H215.704C216.215 376.165 217.029 375.178 218.146 374.445C219.273 373.713 220.665 373.347 222.322 373.347C223.853 373.347 225.187 373.675 226.324 374.33C227.47 374.985 228.356 375.934 228.982 377.176C229.618 378.419 229.931 379.926 229.921 381.698V395.829H224.691V382.508C224.691 381.024 224.306 379.864 223.535 379.026C222.774 378.188 221.72 377.769 220.371 377.769C219.456 377.769 218.642 377.971 217.929 378.375C217.226 378.77 216.672 379.343 216.268 380.095C215.873 380.846 215.675 381.756 215.675 382.825ZM243.473 396.219C241.73 396.219 240.17 395.771 238.792 394.875C237.415 393.979 236.326 392.679 235.527 390.974C234.728 389.269 234.328 387.198 234.328 384.761C234.328 382.296 234.732 380.215 235.541 378.52C236.36 376.815 237.463 375.529 238.85 374.662C240.237 373.786 241.783 373.347 243.488 373.347C244.788 373.347 245.857 373.569 246.695 374.012C247.533 374.445 248.198 374.97 248.689 375.587C249.18 376.194 249.561 376.767 249.831 377.306H250.047V366.239H255.292V395.829H250.148V392.332H249.831C249.561 392.872 249.171 393.445 248.66 394.052C248.15 394.649 247.476 395.159 246.638 395.583C245.8 396.007 244.745 396.219 243.473 396.219ZM244.933 391.928C246.04 391.928 246.984 391.629 247.765 391.032C248.545 390.425 249.137 389.582 249.542 388.503C249.946 387.425 250.148 386.168 250.148 384.733C250.148 383.297 249.946 382.05 249.542 380.99C249.147 379.931 248.559 379.107 247.779 378.52C247.008 377.932 246.06 377.639 244.933 377.639C243.767 377.639 242.794 377.942 242.014 378.549C241.234 379.156 240.646 379.994 240.252 381.063C239.857 382.132 239.659 383.355 239.659 384.733C239.659 386.12 239.857 387.357 240.252 388.446C240.656 389.524 241.248 390.377 242.029 391.003C242.818 391.619 243.786 391.928 244.933 391.928Z" fill="black"/>
<path d="M53.4785 448.527V411.54H55.848V448.527H53.4785ZM61.4538 422.636C61.2804 421.172 60.5773 420.036 59.3444 419.227C58.1115 418.418 56.5993 418.013 54.8077 418.013C53.4978 418.013 52.3516 418.225 51.3691 418.649C50.3962 419.073 49.6353 419.655 49.0863 420.397C48.5469 421.139 48.2772 421.981 48.2772 422.925C48.2772 423.715 48.465 424.394 48.8407 424.963C49.226 425.521 49.7172 425.988 50.3144 426.364C50.9116 426.73 51.5376 427.033 52.1926 427.274C52.8476 427.505 53.4496 427.693 53.9986 427.838L57.0038 428.647C57.7744 428.849 58.6316 429.128 59.5756 429.485C60.5291 429.841 61.4394 430.328 62.3063 430.944C63.1828 431.551 63.9052 432.331 64.4735 433.285C65.0418 434.238 65.3259 435.408 65.3259 436.795C65.3259 438.394 64.9069 439.839 64.0689 441.13C63.2406 442.421 62.0269 443.446 60.428 444.207C58.8387 444.968 56.9075 445.349 54.6343 445.349C52.5153 445.349 50.6804 445.007 49.1296 444.323C47.5885 443.639 46.3749 442.685 45.4887 441.462C44.6122 440.239 44.1162 438.818 44.0006 437.2H47.6993C47.7956 438.317 48.1712 439.242 48.8262 439.974C49.4908 440.696 50.3288 441.236 51.3402 441.592C52.3612 441.939 53.4592 442.112 54.6343 442.112C56.0021 442.112 57.2302 441.891 58.3186 441.448C59.407 440.995 60.2691 440.369 60.9048 439.57C61.5405 438.76 61.8584 437.816 61.8584 436.738C61.8584 435.755 61.5839 434.956 61.0348 434.339C60.4858 433.723 59.7634 433.222 58.8676 432.837C57.9718 432.451 57.0038 432.114 55.9636 431.825L52.3227 430.785C50.011 430.12 48.1809 429.172 46.8324 427.939C45.4839 426.706 44.8097 425.093 44.8097 423.099C44.8097 421.442 45.2576 419.997 46.1533 418.764C47.0587 417.522 48.2724 416.559 49.7942 415.875C51.3257 415.181 53.0354 414.834 54.9233 414.834C56.8304 414.834 58.5257 415.176 60.009 415.86C61.4924 416.535 62.6675 417.459 63.5343 418.634C64.4109 419.809 64.8732 421.143 64.9214 422.636H61.4538ZM81.0996 415.239V444.829H77.5164V418.995H77.3431L70.119 423.792V420.151L77.5164 415.239H81.0996ZM98.8562 445.233C97.161 445.233 95.6343 444.896 94.2762 444.222C92.9181 443.548 91.8296 442.623 91.0109 441.448C90.1922 440.273 89.7443 438.934 89.6673 437.431H93.1348C93.2696 438.77 93.8765 439.878 94.9552 440.754C96.0437 441.621 97.344 442.055 98.8562 442.055C100.07 442.055 101.149 441.77 102.093 441.202C103.046 440.634 103.793 439.854 104.332 438.862C104.881 437.86 105.156 436.728 105.156 435.466C105.156 434.176 104.871 433.025 104.303 432.013C103.744 430.992 102.974 430.188 101.991 429.6C101.009 429.013 99.8868 428.714 98.625 428.705C97.7196 428.695 96.7901 428.835 95.8366 429.124C94.883 429.403 94.098 429.764 93.4815 430.207L90.1296 429.803L91.9212 415.239H107.294V418.418H94.9263L93.8861 427.144H94.0595C94.6663 426.663 95.4272 426.263 96.3423 425.945C97.2573 425.627 98.2109 425.468 99.203 425.468C101.014 425.468 102.627 425.902 104.043 426.769C105.469 427.626 106.586 428.801 107.395 430.294C108.214 431.787 108.623 433.492 108.623 435.408C108.623 437.296 108.199 438.982 107.352 440.465C106.514 441.939 105.358 443.104 103.884 443.962C102.41 444.809 100.734 445.233 98.8562 445.233ZM146.553 424.486C146.235 423.513 145.816 422.641 145.296 421.871C144.785 421.09 144.174 420.426 143.461 419.877C142.758 419.328 141.958 418.909 141.063 418.62C140.167 418.331 139.184 418.186 138.115 418.186C136.362 418.186 134.768 418.639 133.333 419.545C131.898 420.45 130.756 421.784 129.909 423.547C129.061 425.309 128.637 427.472 128.637 430.034C128.637 432.596 129.066 434.758 129.923 436.521C130.78 438.284 131.941 439.618 133.405 440.523C134.869 441.429 136.516 441.881 138.346 441.881C140.042 441.881 141.535 441.52 142.825 440.798C144.126 440.066 145.137 439.035 145.859 437.706C146.591 436.367 146.957 434.792 146.957 432.981L148.055 433.212H139.155V430.034H150.425V433.212C150.425 435.649 149.905 437.768 148.865 439.57C147.834 441.371 146.408 442.767 144.588 443.759C142.777 444.742 140.697 445.233 138.346 445.233C135.726 445.233 133.424 444.617 131.44 443.384C129.466 442.151 127.924 440.398 126.817 438.125C125.719 435.852 125.17 433.155 125.17 430.034C125.17 427.693 125.483 425.589 126.109 423.72C126.745 421.842 127.64 420.243 128.796 418.923C129.952 417.604 131.32 416.592 132.899 415.889C134.479 415.186 136.218 414.834 138.115 414.834C139.676 414.834 141.13 415.07 142.479 415.542C143.837 416.005 145.045 416.665 146.105 417.522C147.174 418.369 148.065 419.386 148.778 420.57C149.491 421.745 149.982 423.051 150.252 424.486H146.553ZM157.49 444.829V422.636H160.9V444.829H157.49ZM159.224 418.938C158.559 418.938 157.986 418.711 157.504 418.259C157.033 417.806 156.797 417.262 156.797 416.626C156.797 415.99 157.033 415.446 157.504 414.993C157.986 414.541 158.559 414.314 159.224 414.314C159.888 414.314 160.457 414.541 160.929 414.993C161.41 415.446 161.651 415.99 161.651 416.626C161.651 417.262 161.41 417.806 160.929 418.259C160.457 418.711 159.888 418.938 159.224 418.938ZM177.027 422.636V425.526H165.064V422.636H177.027ZM168.648 444.829V419.573C168.648 418.302 168.946 417.242 169.543 416.395C170.14 415.547 170.916 414.912 171.869 414.488C172.823 414.064 173.83 413.852 174.889 413.852C175.727 413.852 176.411 413.919 176.941 414.054C177.47 414.189 177.865 414.314 178.125 414.43L177.143 417.377C176.97 417.32 176.729 417.247 176.421 417.161C176.122 417.074 175.727 417.031 175.236 417.031C174.109 417.031 173.295 417.315 172.794 417.883C172.303 418.451 172.057 419.284 172.057 420.383V444.829H168.648ZM191.457 422.636V425.526H179.957V422.636H191.457ZM183.309 417.32H186.718V438.471C186.718 439.435 186.858 440.157 187.137 440.639C187.426 441.111 187.792 441.429 188.235 441.592C188.688 441.746 189.165 441.823 189.666 441.823C190.041 441.823 190.35 441.804 190.591 441.766C190.831 441.717 191.024 441.679 191.168 441.65L191.862 444.713C191.631 444.8 191.308 444.886 190.894 444.973C190.48 445.069 189.955 445.118 189.319 445.118C188.356 445.118 187.412 444.91 186.487 444.496C185.572 444.082 184.811 443.451 184.204 442.604C183.607 441.756 183.309 440.687 183.309 439.396V417.32ZM232.302 424.486H228.719C228.507 423.455 228.136 422.55 227.606 421.77C227.086 420.989 226.451 420.334 225.699 419.805C224.958 419.265 224.134 418.861 223.229 418.591C222.323 418.321 221.379 418.186 220.397 418.186C218.605 418.186 216.982 418.639 215.528 419.545C214.083 420.45 212.932 421.784 212.075 423.547C211.227 425.309 210.803 427.472 210.803 430.034C210.803 432.596 211.227 434.758 212.075 436.521C212.932 438.284 214.083 439.618 215.528 440.523C216.982 441.429 218.605 441.881 220.397 441.881C221.379 441.881 222.323 441.746 223.229 441.477C224.134 441.207 224.958 440.807 225.699 440.277C226.451 439.738 227.086 439.078 227.606 438.298C228.136 437.508 228.507 436.603 228.719 435.582H232.302C232.032 437.094 231.541 438.447 230.828 439.642C230.116 440.836 229.229 441.852 228.17 442.69C227.11 443.519 225.921 444.15 224.601 444.583C223.291 445.016 221.89 445.233 220.397 445.233C217.873 445.233 215.629 444.617 213.664 443.384C211.699 442.151 210.153 440.398 209.026 438.125C207.899 435.852 207.336 433.155 207.336 430.034C207.336 426.913 207.899 424.216 209.026 421.943C210.153 419.67 211.699 417.917 213.664 416.684C215.629 415.451 217.873 414.834 220.397 414.834C221.89 414.834 223.291 415.051 224.601 415.485C225.921 415.918 227.11 416.554 228.17 417.392C229.229 418.22 230.116 419.231 230.828 420.426C231.541 421.611 232.032 422.964 232.302 424.486ZM244.16 445.349C242.754 445.349 241.478 445.084 240.332 444.554C239.185 444.015 238.275 443.239 237.601 442.228C236.927 441.207 236.59 439.974 236.59 438.529C236.59 437.258 236.84 436.227 237.341 435.437C237.842 434.638 238.511 434.012 239.349 433.559C240.187 433.106 241.112 432.769 242.123 432.548C243.144 432.317 244.17 432.134 245.201 431.999C246.549 431.825 247.642 431.695 248.48 431.609C249.328 431.512 249.944 431.353 250.33 431.132C250.725 430.91 250.922 430.525 250.922 429.976V429.86C250.922 428.435 250.532 427.327 249.752 426.537C248.981 425.748 247.811 425.353 246.241 425.353C244.613 425.353 243.337 425.709 242.412 426.422C241.487 427.135 240.837 427.895 240.462 428.705L237.225 427.549C237.803 426.2 238.574 425.15 239.537 424.399C240.51 423.638 241.569 423.108 242.715 422.81C243.871 422.502 245.008 422.347 246.125 422.347C246.838 422.347 247.657 422.434 248.581 422.608C249.516 422.771 250.416 423.113 251.283 423.633C252.16 424.153 252.887 424.938 253.465 425.988C254.043 427.038 254.332 428.445 254.332 430.207V444.829H250.922V441.823H250.749C250.517 442.305 250.132 442.82 249.593 443.369C249.053 443.918 248.336 444.386 247.44 444.771C246.544 445.156 245.451 445.349 244.16 445.349ZM244.68 442.286C246.029 442.286 247.165 442.021 248.09 441.491C249.024 440.961 249.728 440.277 250.2 439.439C250.681 438.602 250.922 437.72 250.922 436.795V433.675C250.777 433.848 250.46 434.007 249.968 434.152C249.487 434.286 248.928 434.407 248.292 434.513C247.666 434.609 247.055 434.696 246.458 434.773C245.87 434.84 245.393 434.898 245.027 434.946C244.141 435.062 243.313 435.25 242.542 435.51C241.781 435.76 241.165 436.141 240.693 436.651C240.23 437.152 239.999 437.836 239.999 438.703C239.999 439.887 240.438 440.783 241.314 441.39C242.2 441.987 243.322 442.286 244.68 442.286ZM260.555 444.829V422.636H263.849V425.988H264.081C264.485 424.89 265.217 423.999 266.277 423.315C267.336 422.632 268.531 422.29 269.86 422.29C270.11 422.29 270.423 422.294 270.799 422.304C271.175 422.314 271.459 422.328 271.651 422.347V425.815C271.536 425.786 271.271 425.743 270.857 425.685C270.452 425.618 270.024 425.584 269.571 425.584C268.492 425.584 267.529 425.81 266.681 426.263C265.843 426.706 265.179 427.322 264.687 428.112C264.206 428.892 263.965 429.783 263.965 430.785V444.829H260.555ZM283.398 445.291C281.548 445.291 279.916 444.824 278.5 443.889C277.084 442.946 275.976 441.616 275.177 439.902C274.377 438.178 273.977 436.141 273.977 433.79C273.977 431.459 274.377 429.437 275.177 427.722C275.976 426.008 277.089 424.683 278.514 423.749C279.94 422.815 281.587 422.347 283.455 422.347C284.9 422.347 286.042 422.588 286.88 423.07C287.727 423.542 288.373 424.081 288.816 424.688C289.268 425.285 289.62 425.776 289.87 426.162H290.159V415.239H293.569V444.829H290.275V441.419H289.87C289.62 441.823 289.263 442.334 288.801 442.95C288.339 443.557 287.679 444.101 286.822 444.583C285.965 445.055 284.823 445.291 283.398 445.291ZM283.86 442.228C285.228 442.228 286.384 441.872 287.327 441.159C288.271 440.436 288.989 439.439 289.48 438.168C289.971 436.887 290.217 435.408 290.217 433.733C290.217 432.076 289.976 430.626 289.495 429.384C289.013 428.131 288.3 427.159 287.356 426.465C286.412 425.762 285.247 425.41 283.86 425.41C282.415 425.41 281.211 425.781 280.248 426.523C279.294 427.255 278.577 428.252 278.095 429.514C277.623 430.766 277.387 432.172 277.387 433.733C277.387 435.312 277.628 436.747 278.11 438.038C278.601 439.319 279.323 440.34 280.277 441.101C281.24 441.852 282.434 442.228 283.86 442.228Z" fill="black"/>
<path d="M89.797 509.49C87.755 509.49 85.9346 509.115 84.3357 508.364C82.7464 507.612 81.4846 506.577 80.5503 505.257C79.616 503.938 79.1296 502.425 79.091 500.721H85.1592C85.2266 501.867 85.7082 502.796 86.604 503.509C87.4998 504.222 88.5641 504.578 89.797 504.578C90.7795 504.578 91.6464 504.361 92.3977 503.928C93.1586 503.485 93.751 502.873 94.1748 502.093C94.6082 501.303 94.825 500.398 94.825 499.377C94.825 498.337 94.6034 497.422 94.1603 496.632C93.7269 495.842 93.1249 495.225 92.3543 494.782C91.5838 494.339 90.7024 494.113 89.7103 494.103C88.8435 494.103 88.0007 494.281 87.1819 494.638C86.3728 494.994 85.7419 495.481 85.2892 496.097L79.7267 495.1L81.1282 479.496H99.2172V484.611H86.2862L85.5204 492.023H85.6938C86.2139 491.291 86.9989 490.684 88.0488 490.202C89.0987 489.721 90.2738 489.48 91.5741 489.48C93.3561 489.48 94.9454 489.899 96.342 490.737C97.7386 491.575 98.8415 492.726 99.6506 494.19C100.46 495.644 100.859 497.32 100.85 499.218C100.859 501.212 100.397 502.984 99.4628 504.535C98.5381 506.076 97.2426 507.29 95.5763 508.176C93.9195 509.052 91.9931 509.49 89.797 509.49ZM114.687 509.086V486.894H120.654V490.766H120.886C121.29 489.388 121.969 488.348 122.923 487.645C123.876 486.932 124.974 486.576 126.217 486.576C126.525 486.576 126.857 486.595 127.214 486.634C127.57 486.672 127.883 486.725 128.153 486.793V492.254C127.864 492.167 127.464 492.09 126.954 492.023C126.443 491.955 125.976 491.922 125.552 491.922C124.647 491.922 123.838 492.119 123.125 492.514C122.422 492.899 121.863 493.439 121.449 494.132C121.045 494.826 120.842 495.625 120.842 496.531V509.086H114.687ZM140.416 509.519C138.133 509.519 136.168 509.057 134.521 508.132C132.884 507.198 131.622 505.878 130.736 504.174C129.849 502.459 129.406 500.432 129.406 498.091C129.406 495.808 129.849 493.805 130.736 492.081C131.622 490.356 132.869 489.013 134.478 488.05C136.096 487.086 137.993 486.605 140.17 486.605C141.634 486.605 142.997 486.841 144.259 487.313C145.53 487.775 146.638 488.473 147.582 489.408C148.536 490.342 149.277 491.517 149.807 492.933C150.337 494.339 150.602 495.986 150.602 497.874V499.565H131.863V495.75H144.808C144.808 494.864 144.615 494.079 144.23 493.395C143.845 492.711 143.31 492.177 142.626 491.792C141.952 491.397 141.167 491.199 140.271 491.199C139.337 491.199 138.509 491.416 137.786 491.849C137.073 492.273 136.515 492.846 136.11 493.569C135.706 494.281 135.499 495.076 135.489 495.953V499.579C135.489 500.677 135.691 501.626 136.096 502.425C136.51 503.225 137.093 503.841 137.844 504.275C138.595 504.708 139.486 504.925 140.517 504.925C141.201 504.925 141.827 504.829 142.395 504.636C142.963 504.443 143.45 504.154 143.854 503.769C144.259 503.384 144.567 502.912 144.779 502.353L150.472 502.729C150.183 504.097 149.59 505.291 148.695 506.312C147.808 507.323 146.662 508.113 145.256 508.681C143.859 509.24 142.246 509.519 140.416 509.519ZM154.618 509.086V486.894H160.484V490.809H160.744C161.207 489.509 161.977 488.483 163.056 487.732C164.135 486.98 165.425 486.605 166.928 486.605C168.45 486.605 169.745 486.985 170.814 487.746C171.884 488.497 172.596 489.518 172.953 490.809H173.184C173.637 489.538 174.455 488.522 175.64 487.761C176.835 486.99 178.246 486.605 179.873 486.605C181.944 486.605 183.625 487.265 184.916 488.584C186.216 489.894 186.866 491.753 186.866 494.161V509.086H180.726V495.375C180.726 494.142 180.398 493.217 179.743 492.601C179.088 491.984 178.27 491.676 177.287 491.676C176.17 491.676 175.298 492.032 174.672 492.745C174.046 493.448 173.733 494.378 173.733 495.534V509.086H167.766V495.245C167.766 494.156 167.453 493.289 166.827 492.644C166.21 491.999 165.396 491.676 164.385 491.676C163.701 491.676 163.085 491.849 162.536 492.196C161.996 492.533 161.568 493.01 161.25 493.627C160.932 494.233 160.773 494.946 160.773 495.765V509.086H154.618ZM198.056 509.505C196.64 509.505 195.379 509.259 194.271 508.768C193.163 508.267 192.287 507.53 191.641 506.558C191.006 505.575 190.688 504.352 190.688 502.888C190.688 501.655 190.914 500.619 191.367 499.781C191.82 498.943 192.436 498.269 193.216 497.759C193.996 497.248 194.883 496.863 195.875 496.603C196.876 496.343 197.926 496.16 199.024 496.054C200.315 495.919 201.355 495.794 202.145 495.678C202.935 495.553 203.508 495.37 203.864 495.129C204.221 494.888 204.399 494.532 204.399 494.06V493.973C204.399 493.058 204.11 492.35 203.532 491.849C202.964 491.349 202.155 491.098 201.105 491.098C199.997 491.098 199.116 491.344 198.461 491.835C197.806 492.317 197.372 492.923 197.161 493.655L191.468 493.193C191.757 491.845 192.325 490.679 193.173 489.697C194.02 488.705 195.114 487.944 196.453 487.414C197.801 486.874 199.361 486.605 201.134 486.605C202.367 486.605 203.547 486.749 204.673 487.038C205.81 487.327 206.817 487.775 207.693 488.382C208.579 488.989 209.278 489.769 209.788 490.722C210.299 491.666 210.554 492.798 210.554 494.118V509.086H204.717V506.009H204.543C204.187 506.702 203.71 507.314 203.113 507.843C202.516 508.364 201.798 508.773 200.96 509.071C200.122 509.36 199.154 509.505 198.056 509.505ZM199.819 505.257C200.724 505.257 201.524 505.079 202.217 504.723C202.911 504.357 203.455 503.865 203.85 503.249C204.245 502.632 204.442 501.934 204.442 501.154V498.799C204.25 498.924 203.985 499.04 203.648 499.146C203.32 499.242 202.949 499.334 202.535 499.42C202.121 499.497 201.707 499.569 201.293 499.637C200.878 499.695 200.503 499.748 200.166 499.796C199.443 499.902 198.812 500.07 198.273 500.302C197.734 500.533 197.315 500.846 197.016 501.241C196.717 501.626 196.568 502.108 196.568 502.685C196.568 503.523 196.872 504.164 197.478 504.607C198.095 505.04 198.875 505.257 199.819 505.257ZM215.329 509.086V486.894H221.484V509.086H215.329ZM218.421 484.033C217.506 484.033 216.721 483.73 216.066 483.123C215.42 482.506 215.098 481.769 215.098 480.912C215.098 480.065 215.42 479.337 216.066 478.731C216.721 478.114 217.506 477.806 218.421 477.806C219.336 477.806 220.116 478.114 220.761 478.731C221.416 479.337 221.744 480.065 221.744 480.912C221.744 481.769 221.416 482.506 220.761 483.123C220.116 483.73 219.336 484.033 218.421 484.033ZM232.569 496.256V509.086H226.414V486.894H232.28V490.809H232.54C233.031 489.518 233.855 488.497 235.011 487.746C236.167 486.985 237.568 486.605 239.215 486.605C240.756 486.605 242.1 486.942 243.246 487.616C244.392 488.29 245.283 489.254 245.919 490.506C246.555 491.748 246.873 493.232 246.873 494.956V509.086H240.718V496.054C240.727 494.696 240.381 493.636 239.678 492.875C238.974 492.105 238.006 491.719 236.773 491.719C235.945 491.719 235.213 491.898 234.577 492.254C233.951 492.61 233.46 493.13 233.104 493.814C232.757 494.489 232.579 495.302 232.569 496.256ZM251.724 509.086V486.894H257.878V509.086H251.724ZM254.815 484.033C253.9 484.033 253.115 483.73 252.46 483.123C251.815 482.506 251.492 481.769 251.492 480.912C251.492 480.065 251.815 479.337 252.46 478.731C253.115 478.114 253.9 477.806 254.815 477.806C255.731 477.806 256.511 478.114 257.156 478.731C257.811 479.337 258.139 480.065 258.139 480.912C258.139 481.769 257.811 482.506 257.156 483.123C256.511 483.73 255.731 484.033 254.815 484.033ZM268.964 496.256V509.086H262.809V486.894H268.675V490.809H268.935C269.426 489.518 270.25 488.497 271.405 487.746C272.561 486.985 273.963 486.605 275.61 486.605C277.151 486.605 278.495 486.942 279.641 487.616C280.787 488.29 281.678 489.254 282.314 490.506C282.949 491.748 283.267 493.232 283.267 494.956V509.086H277.112V496.054C277.122 494.696 276.775 493.636 276.072 492.875C275.369 492.105 274.401 491.719 273.168 491.719C272.34 491.719 271.608 491.898 270.972 492.254C270.346 492.61 269.855 493.13 269.498 493.814C269.152 494.489 268.973 495.302 268.964 496.256ZM298.116 517.87C296.122 517.87 294.413 517.596 292.987 517.047C291.571 516.507 290.444 515.771 289.606 514.836C288.768 513.902 288.224 512.852 287.974 511.687L293.666 510.921C293.84 511.364 294.114 511.778 294.49 512.163C294.865 512.549 295.362 512.857 295.978 513.088C296.604 513.329 297.365 513.449 298.261 513.449C299.6 513.449 300.702 513.122 301.569 512.467C302.446 511.821 302.884 510.738 302.884 509.216V505.156H302.624C302.354 505.773 301.95 506.355 301.41 506.904C300.871 507.453 300.178 507.901 299.33 508.248C298.482 508.595 297.471 508.768 296.296 508.768C294.629 508.768 293.112 508.383 291.745 507.612C290.387 506.832 289.303 505.642 288.494 504.044C287.694 502.435 287.295 500.403 287.295 497.946C287.295 495.433 287.704 493.333 288.523 491.647C289.341 489.962 290.43 488.7 291.788 487.862C293.156 487.024 294.654 486.605 296.281 486.605C297.524 486.605 298.564 486.817 299.402 487.24C300.24 487.655 300.914 488.175 301.425 488.801C301.945 489.417 302.345 490.024 302.624 490.621H302.855V486.894H308.967V509.303C308.967 511.191 308.504 512.77 307.58 514.042C306.655 515.313 305.374 516.267 303.737 516.902C302.109 517.548 300.235 517.87 298.116 517.87ZM298.246 504.145C299.238 504.145 300.076 503.899 300.76 503.408C301.454 502.907 301.984 502.194 302.35 501.27C302.725 500.335 302.913 499.218 302.913 497.918C302.913 496.617 302.73 495.49 302.364 494.537C301.998 493.574 301.468 492.827 300.775 492.297C300.081 491.768 299.238 491.503 298.246 491.503C297.235 491.503 296.383 491.777 295.689 492.326C294.995 492.866 294.471 493.617 294.114 494.58C293.758 495.543 293.58 496.656 293.58 497.918C293.58 499.199 293.758 500.306 294.114 501.241C294.48 502.165 295.005 502.883 295.689 503.393C296.383 503.894 297.235 504.145 298.246 504.145Z" fill="#179C34"/>
</g>
<defs>
<filter id="filter0_d_2798_751" x="0.742857" y="0.828571" width="386.514" height="564.028" filterUnits="userSpaceOnUse" color-interpolation-filters="sRGB">
<feFlood flood-opacity="0" result="BackgroundImageFix"/>
<feColorMatrix in="SourceAlpha" type="matrix" values="0 0 0 0 0 0 0 0 0 0 0 0 0 0 0 0 0 0 127 0" result="hardAlpha"/>
<feOffset dy="5.08571"/>
<feGaussianBlur stdDeviation="7.62857"/>
<feComposite in2="hardAlpha" operator="out"/>
<feColorMatrix type="matrix" values="0 0 0 0 0 0 0 0 0 0 0 0 0 0 0 0 0 0 0.25 0"/>
<feBlend mode="normal" in2="BackgroundImageFix" result="effect1_dropShadow_2798_751"/>
<feBlend mode="normal" in="SourceGraphic" in2="effect1_dropShadow_2798_751" result="shape"/>
</filter>
<linearGradient id="paint0_linear_2798_751" x1="41.6898" y1="36.691" x2="346.308" y2="341.31" gradientUnits="userSpaceOnUse">
<stop stop-color="#4198FF"/>
<stop offset="1" stop-color="#CB80D8"/>
</linearGradient>
</defs>
</svg>
