<svg width="361" height="370" viewBox="0 0 361 370" fill="none" xmlns="http://www.w3.org/2000/svg">
<circle cx="180.5" cy="189.5" r="177.5" stroke="url(#paint0_linear_4_16)" stroke-width="6"/>
<circle cx="59.5" cy="53.5" r="51" fill="url(#paint1_linear_4_16)" stroke="white" stroke-width="5"/>
<path d="M18.0766 60V47.6125H26.4237V49.7719H20.6957V52.7236H25.9942V54.8829H20.6957V57.8407H26.4479V60H18.0766ZM31.881 60.1512C31.1753 60.1512 30.5362 59.9698 29.9636 59.6068C29.395 59.2399 28.9434 58.7016 28.6087 57.9919C28.2781 57.2781 28.1127 56.4031 28.1127 55.3668C28.1127 54.3022 28.2841 53.4171 28.6269 52.7115C28.9696 52.0018 29.4253 51.4715 29.9938 51.1207C30.5664 50.7658 31.1935 50.5884 31.8749 50.5884C32.3951 50.5884 32.8286 50.6771 33.1754 50.8546C33.5262 51.028 33.8085 51.2457 34.0222 51.5078C34.2399 51.7659 34.4053 52.0199 34.5182 52.2699H34.5968V47.6125H37.1674V60H34.627V58.5121H34.5182C34.3972 58.7701 34.2258 59.0262 34.004 59.2802C33.7863 59.5302 33.502 59.7379 33.1512 59.9032C32.8044 60.0686 32.381 60.1512 31.881 60.1512ZM32.6976 58.1007C33.1129 58.1007 33.4637 57.9878 33.75 57.762C34.0403 57.5322 34.2621 57.2116 34.4153 56.8003C34.5726 56.389 34.6512 55.9071 34.6512 55.3547C34.6512 54.8023 34.5746 54.3224 34.4214 53.9151C34.2682 53.5079 34.0464 53.1933 33.7561 52.9716C33.4657 52.7498 33.1129 52.6389 32.6976 52.6389C32.2742 52.6389 31.9173 52.7538 31.627 52.9837C31.3366 53.2135 31.1169 53.5321 30.9677 53.9393C30.8185 54.3466 30.7439 54.8184 30.7439 55.3547C30.7439 55.895 30.8185 56.3729 30.9677 56.7882C31.1209 57.1995 31.3407 57.5221 31.627 57.756C31.9173 57.9858 32.2742 58.1007 32.6976 58.1007ZM45.2438 56.0442V50.7094H47.8205V60H45.3466V58.3124H45.2499C45.0402 58.8568 44.6914 59.2943 44.2034 59.625C43.7196 59.9556 43.1288 60.121 42.4312 60.121C41.8102 60.121 41.2638 59.9798 40.7921 59.6976C40.3203 59.4153 39.9513 59.0141 39.6852 58.4939C39.4231 57.9737 39.29 57.3507 39.286 56.6249V50.7094H41.8627V56.1652C41.8667 56.7136 42.0139 57.1471 42.3042 57.4656C42.5945 57.7842 42.9837 57.9435 43.4716 57.9435C43.7821 57.9435 44.0724 57.8729 44.3426 57.7318C44.6127 57.5866 44.8305 57.3729 44.9958 57.0906C45.1652 56.8084 45.2478 56.4596 45.2438 56.0442ZM54.0793 60.1815C53.1276 60.1815 52.309 59.9798 51.6235 59.5766C50.9421 59.1693 50.4179 58.6048 50.0509 57.883C49.688 57.1612 49.5065 56.3305 49.5065 55.391C49.5065 54.4393 49.69 53.6046 50.057 52.8869C50.4279 52.1651 50.9542 51.6026 51.6356 51.1993C52.3171 50.7921 53.1276 50.5884 54.0672 50.5884C54.8777 50.5884 55.5874 50.7356 56.1963 51.03C56.8051 51.3243 57.287 51.7377 57.6419 52.2699C57.9967 52.8022 58.1923 53.4272 58.2286 54.145H55.797C55.7285 53.6813 55.547 53.3083 55.2527 53.026C54.9623 52.7397 54.5813 52.5965 54.1095 52.5965C53.7103 52.5965 53.3615 52.7054 53.0631 52.9232C52.7687 53.1369 52.5389 53.4494 52.3736 53.8607C52.2082 54.272 52.1256 54.77 52.1256 55.3547C52.1256 55.9475 52.2062 56.4515 52.3675 56.8668C52.5328 57.2822 52.7647 57.5987 53.0631 57.8165C53.3615 58.0342 53.7103 58.1431 54.1095 58.1431C54.4039 58.1431 54.668 58.0826 54.9019 57.9616C55.1398 57.8407 55.3353 57.6653 55.4886 57.4354C55.6458 57.2015 55.7487 56.9213 55.797 56.5947H58.2286C58.1882 57.3044 57.9947 57.9294 57.6479 58.4697C57.3052 59.006 56.8314 59.4254 56.2265 59.7278C55.6216 60.0302 54.9059 60.1815 54.0793 60.1815ZM62.5276 60.1754C61.9348 60.1754 61.4066 60.0726 60.9429 59.8669C60.4791 59.6572 60.1122 59.3488 59.842 58.9415C59.5759 58.5302 59.4428 58.0181 59.4428 57.4052C59.4428 56.889 59.5376 56.4555 59.7271 56.1047C59.9166 55.7539 60.1747 55.4716 60.5013 55.2579C60.8279 55.0442 61.1989 54.8829 61.6143 54.774C62.0336 54.6652 62.4732 54.5885 62.9328 54.5442C63.4732 54.4877 63.9087 54.4353 64.2393 54.3869C64.57 54.3345 64.8099 54.2579 64.9591 54.1571C65.1083 54.0563 65.1829 53.9071 65.1829 53.7095V53.6732C65.1829 53.2901 65.0619 52.9937 64.82 52.7841C64.5821 52.5744 64.2434 52.4695 63.8038 52.4695C63.3401 52.4695 62.9712 52.5724 62.697 52.778C62.4228 52.9796 62.2413 53.2337 62.1526 53.5401L59.7694 53.3466C59.8904 52.782 60.1283 52.2941 60.4832 51.8828C60.838 51.4675 61.2957 51.1489 61.8562 50.9271C62.4207 50.7013 63.074 50.5884 63.8159 50.5884C64.3321 50.5884 64.8261 50.6489 65.2978 50.7699C65.7737 50.8909 66.195 51.0784 66.562 51.3324C66.933 51.5864 67.2253 51.9131 67.439 52.3123C67.6528 52.7074 67.7596 53.1812 67.7596 53.7337V60H65.316V58.7117H65.2434C65.0942 59.002 64.8946 59.258 64.6446 59.4798C64.3946 59.6976 64.0942 59.8689 63.7434 59.994C63.3925 60.1149 62.9873 60.1754 62.5276 60.1754ZM63.2655 58.3971C63.6446 58.3971 63.9793 58.3225 64.2696 58.1733C64.5599 58.0201 64.7877 57.8144 64.9531 57.5564C65.1184 57.2983 65.2011 57.006 65.2011 56.6793V55.6934C65.1204 55.7458 65.0095 55.7942 64.8684 55.8386C64.7313 55.8789 64.576 55.9172 64.4027 55.9535C64.2293 55.9858 64.0559 56.016 63.8825 56.0442C63.7091 56.0684 63.5518 56.0906 63.4107 56.1108C63.1083 56.1551 62.8441 56.2257 62.6183 56.3225C62.3925 56.4192 62.2171 56.5503 62.0921 56.7156C61.9671 56.8769 61.9046 57.0785 61.9046 57.3205C61.9046 57.6713 62.0316 57.9395 62.2857 58.1249C62.5437 58.3064 62.8703 58.3971 63.2655 58.3971ZM74.7003 50.7094V52.6449H69.1054V50.7094H74.7003ZM70.3756 48.4835H72.9523V57.1451C72.9523 57.383 72.9886 57.5685 73.0612 57.7015C73.1338 57.8306 73.2346 57.9213 73.3636 57.9737C73.4967 58.0261 73.6499 58.0524 73.8233 58.0524C73.9443 58.0524 74.0652 58.0423 74.1862 58.0221C74.3072 57.9979 74.3999 57.9798 74.4644 57.9677L74.8697 59.8851C74.7407 59.9254 74.5592 59.9718 74.3253 60.0242C74.0915 60.0806 73.8072 60.1149 73.4725 60.127C72.8515 60.1512 72.3071 60.0686 71.8394 59.879C71.3756 59.6895 71.0147 59.3951 70.7567 58.9959C70.4986 58.5967 70.3716 58.0927 70.3756 57.4838V48.4835ZM80.4767 60.1815C79.5372 60.1815 78.7247 59.9819 78.0392 59.5826C77.3577 59.1794 76.8315 58.6189 76.4605 57.9011C76.0895 57.1793 75.904 56.3426 75.904 55.391C75.904 54.4313 76.0895 53.5925 76.4605 52.8748C76.8315 52.153 77.3577 51.5925 78.0392 51.1933C78.7247 50.79 79.5372 50.5884 80.4767 50.5884C81.4163 50.5884 82.2268 50.79 82.9083 51.1933C83.5938 51.5925 84.122 52.153 84.493 52.8748C84.864 53.5925 85.0494 54.4313 85.0494 55.391C85.0494 56.3426 84.864 57.1793 84.493 57.9011C84.122 58.6189 83.5938 59.1794 82.9083 59.5826C82.2268 59.9819 81.4163 60.1815 80.4767 60.1815ZM80.4888 58.1854C80.9163 58.1854 81.2731 58.0645 81.5594 57.8225C81.8457 57.5765 82.0615 57.2419 82.2066 56.8185C82.3558 56.3951 82.4304 55.9132 82.4304 55.3728C82.4304 54.8325 82.3558 54.3506 82.2066 53.9272C82.0615 53.5038 81.8457 53.1691 81.5594 52.9232C81.2731 52.6772 80.9163 52.5542 80.4888 52.5542C80.0574 52.5542 79.6944 52.6772 79.4001 52.9232C79.1098 53.1691 78.89 53.5038 78.7408 53.9272C78.5956 54.3506 78.523 54.8325 78.523 55.3728C78.523 55.9132 78.5956 56.3951 78.7408 56.8185C78.89 57.2419 79.1098 57.5765 79.4001 57.8225C79.6944 58.0645 80.0574 58.1854 80.4888 58.1854ZM86.7249 60V50.7094H89.223V52.3304H89.3197C89.4891 51.7538 89.7734 51.3183 90.1726 51.0239C90.5718 50.7255 91.0315 50.5763 91.5517 50.5763C91.6807 50.5763 91.8198 50.5844 91.969 50.6005C92.1182 50.6167 92.2493 50.6388 92.3622 50.6671V52.9534C92.2412 52.9171 92.0739 52.8849 91.8601 52.8566C91.6464 52.8284 91.4509 52.8143 91.2734 52.8143C90.8944 52.8143 90.5557 52.897 90.2573 53.0623C89.9629 53.2236 89.729 53.4494 89.5556 53.7397C89.3863 54.0301 89.3016 54.3647 89.3016 54.7438V60H86.7249ZM101.424 53.3587L99.0655 53.5038C99.0252 53.3022 98.9385 53.1208 98.8054 52.9595C98.6723 52.7941 98.4969 52.6631 98.2792 52.5663C98.0655 52.4655 97.8094 52.4151 97.511 52.4151C97.1118 52.4151 96.7751 52.4998 96.5009 52.6691C96.2267 52.8345 96.0896 53.0562 96.0896 53.3345C96.0896 53.5563 96.1783 53.7438 96.3557 53.897C96.5332 54.0502 96.8376 54.1732 97.2691 54.266L98.9506 54.6047C99.8538 54.7902 100.527 55.0886 100.971 55.4999C101.414 55.9112 101.636 56.4515 101.636 57.1209C101.636 57.7298 101.457 58.2641 101.098 58.7238C100.743 59.1834 100.255 59.5423 99.6341 59.8004C99.0171 60.0544 98.3054 60.1815 97.4989 60.1815C96.269 60.1815 95.2892 59.9254 94.5593 59.4133C93.8335 58.8971 93.4081 58.1955 93.2831 57.3084L95.8174 57.1753C95.894 57.5503 96.0795 57.8366 96.3739 58.0342C96.6682 58.2278 97.0453 58.3245 97.505 58.3245C97.9566 58.3245 98.3195 58.2378 98.5937 58.0645C98.8719 57.887 99.0131 57.6592 99.0171 57.381C99.0131 57.1471 98.9143 56.9556 98.7207 56.8064C98.5272 56.6531 98.2288 56.5362 97.8255 56.4555L96.2166 56.135C95.3093 55.9535 94.6339 55.639 94.1903 55.1914C93.7508 54.7438 93.5311 54.1732 93.5311 53.4796C93.5311 52.8828 93.6923 52.3687 94.0149 51.9373C94.3416 51.5058 94.7992 51.1731 95.388 50.9392C95.9807 50.7054 96.6743 50.5884 97.4687 50.5884C98.6421 50.5884 99.5655 50.8364 100.239 51.3324C100.916 51.8284 101.312 52.5038 101.424 53.3587Z" fill="white"/>
<circle cx="299.5" cy="316.5" r="51" fill="url(#paint2_linear_4_16)" stroke="white" stroke-width="5"/>
<path d="M268.797 314.175C268.748 313.687 268.541 313.308 268.174 313.038C267.807 312.768 267.309 312.633 266.68 312.633C266.252 312.633 265.891 312.693 265.597 312.814C265.303 312.931 265.077 313.094 264.919 313.304C264.766 313.514 264.69 313.752 264.69 314.018C264.682 314.24 264.728 314.433 264.829 314.599C264.934 314.764 265.077 314.907 265.258 315.028C265.44 315.145 265.649 315.248 265.887 315.336C266.125 315.421 266.379 315.494 266.649 315.554L267.762 315.82C268.303 315.941 268.799 316.103 269.25 316.304C269.702 316.506 270.093 316.754 270.424 317.048C270.754 317.343 271.01 317.689 271.192 318.089C271.377 318.488 271.472 318.945 271.476 319.462C271.472 320.22 271.279 320.877 270.895 321.433C270.516 321.986 269.968 322.415 269.25 322.722C268.537 323.024 267.676 323.175 266.668 323.175C265.667 323.175 264.796 323.022 264.055 322.716C263.317 322.409 262.74 321.956 262.325 321.355C261.913 320.75 261.698 320.002 261.677 319.111H264.212C264.24 319.526 264.359 319.873 264.569 320.151C264.782 320.425 265.067 320.633 265.422 320.774C265.78 320.911 266.186 320.98 266.637 320.98C267.081 320.98 267.466 320.915 267.793 320.786C268.123 320.657 268.379 320.478 268.561 320.248C268.742 320.018 268.833 319.754 268.833 319.456C268.833 319.177 268.75 318.943 268.585 318.754C268.424 318.564 268.186 318.403 267.871 318.27C267.561 318.137 267.18 318.016 266.728 317.907L265.379 317.568C264.335 317.314 263.51 316.917 262.905 316.377C262.3 315.836 262 315.109 262.004 314.193C262 313.443 262.2 312.788 262.603 312.227C263.01 311.667 263.569 311.229 264.278 310.915C264.988 310.6 265.795 310.443 266.698 310.443C267.617 310.443 268.42 310.6 269.105 310.915C269.795 311.229 270.331 311.667 270.714 312.227C271.097 312.788 271.295 313.437 271.307 314.175H268.797ZM278.131 313.709V315.645H272.536V313.709H278.131ZM273.806 311.484H276.383V320.145C276.383 320.383 276.419 320.568 276.492 320.702C276.564 320.831 276.665 320.921 276.794 320.974C276.927 321.026 277.081 321.052 277.254 321.052C277.375 321.052 277.496 321.042 277.617 321.022C277.738 320.998 277.831 320.98 277.895 320.968L278.3 322.885C278.171 322.925 277.99 322.972 277.756 323.024C277.522 323.081 277.238 323.115 276.903 323.127C276.282 323.151 275.738 323.069 275.27 322.879C274.806 322.69 274.445 322.395 274.187 321.996C273.929 321.597 273.802 321.093 273.806 320.484V311.484ZM285.767 319.044V313.709H288.344V323H285.87V321.312H285.773C285.564 321.857 285.215 322.294 284.727 322.625C284.243 322.956 283.652 323.121 282.955 323.121C282.334 323.121 281.787 322.98 281.316 322.698C280.844 322.415 280.475 322.014 280.209 321.494C279.947 320.974 279.814 320.351 279.81 319.625V313.709H282.386V319.165C282.39 319.714 282.537 320.147 282.828 320.466C283.118 320.784 283.507 320.943 283.995 320.943C284.306 320.943 284.596 320.873 284.866 320.732C285.136 320.587 285.354 320.373 285.519 320.091C285.689 319.808 285.771 319.46 285.767 319.044ZM293.829 323.151C293.123 323.151 292.484 322.97 291.911 322.607C291.343 322.24 290.891 321.702 290.556 320.992C290.226 320.278 290.06 319.403 290.06 318.367C290.06 317.302 290.232 316.417 290.574 315.711C290.917 315.002 291.373 314.472 291.941 314.121C292.514 313.766 293.141 313.588 293.823 313.588C294.343 313.588 294.776 313.677 295.123 313.855C295.474 314.028 295.756 314.246 295.97 314.508C296.188 314.766 296.353 315.02 296.466 315.27H296.544V310.613H299.115V323H296.575V321.512H296.466C296.345 321.77 296.173 322.026 295.952 322.28C295.734 322.53 295.45 322.738 295.099 322.903C294.752 323.069 294.329 323.151 293.829 323.151ZM294.645 321.101C295.061 321.101 295.411 320.988 295.698 320.762C295.988 320.532 296.21 320.212 296.363 319.8C296.52 319.389 296.599 318.907 296.599 318.355C296.599 317.802 296.522 317.322 296.369 316.915C296.216 316.508 295.994 316.193 295.704 315.972C295.413 315.75 295.061 315.639 294.645 315.639C294.222 315.639 293.865 315.754 293.575 315.984C293.284 316.214 293.064 316.532 292.915 316.939C292.766 317.347 292.691 317.818 292.691 318.355C292.691 318.895 292.766 319.373 292.915 319.788C293.069 320.2 293.288 320.522 293.575 320.756C293.865 320.986 294.222 321.101 294.645 321.101ZM305.468 323.181C304.512 323.181 303.689 322.988 303 322.601C302.314 322.21 301.786 321.657 301.415 320.943C301.044 320.226 300.859 319.377 300.859 318.397C300.859 317.441 301.044 316.603 301.415 315.881C301.786 315.159 302.308 314.597 302.982 314.193C303.659 313.79 304.453 313.588 305.365 313.588C305.978 313.588 306.548 313.687 307.076 313.885C307.609 314.078 308.072 314.371 308.468 314.762C308.867 315.153 309.177 315.645 309.399 316.238C309.621 316.826 309.732 317.516 309.732 318.306V319.014H301.887V317.417H307.306C307.306 317.046 307.226 316.718 307.064 316.431C306.903 316.145 306.679 315.921 306.393 315.76C306.111 315.595 305.782 315.512 305.407 315.512C305.016 315.512 304.669 315.603 304.367 315.784C304.068 315.961 303.834 316.201 303.665 316.504C303.496 316.802 303.409 317.135 303.405 317.502V319.02C303.405 319.48 303.49 319.877 303.659 320.212C303.832 320.546 304.076 320.804 304.391 320.986C304.705 321.167 305.078 321.258 305.51 321.258C305.796 321.258 306.058 321.218 306.296 321.137C306.534 321.056 306.738 320.935 306.907 320.774C307.076 320.613 307.206 320.415 307.294 320.181L309.677 320.339C309.556 320.911 309.308 321.411 308.933 321.839C308.562 322.262 308.083 322.593 307.494 322.831C306.909 323.065 306.234 323.181 305.468 323.181ZM313.99 317.629V323H311.413V313.709H313.869V315.349H313.978C314.184 314.808 314.528 314.381 315.012 314.066C315.496 313.748 316.083 313.588 316.772 313.588C317.418 313.588 317.98 313.73 318.46 314.012C318.94 314.294 319.313 314.697 319.579 315.222C319.845 315.742 319.978 316.363 319.978 317.084V323H317.401V317.544C317.405 316.976 317.26 316.532 316.966 316.214C316.672 315.891 316.266 315.73 315.75 315.73C315.403 315.73 315.097 315.804 314.831 315.953C314.569 316.103 314.363 316.32 314.214 316.607C314.069 316.889 313.994 317.23 313.99 317.629ZM326.951 313.709V315.645H321.356V313.709H326.951ZM322.626 311.484H325.203V320.145C325.203 320.383 325.239 320.568 325.311 320.702C325.384 320.831 325.485 320.921 325.614 320.974C325.747 321.026 325.9 321.052 326.074 321.052C326.195 321.052 326.315 321.042 326.436 321.022C326.557 320.998 326.65 320.98 326.715 320.968L327.12 322.885C326.991 322.925 326.809 322.972 326.576 323.024C326.342 323.081 326.057 323.115 325.723 323.127C325.102 323.151 324.557 323.069 324.09 322.879C323.626 322.69 323.265 322.395 323.007 321.996C322.749 321.597 322.622 321.093 322.626 320.484V311.484ZM336.243 316.359L333.884 316.504C333.843 316.302 333.757 316.121 333.624 315.959C333.491 315.794 333.315 315.663 333.097 315.566C332.884 315.465 332.628 315.415 332.329 315.415C331.93 315.415 331.593 315.5 331.319 315.669C331.045 315.834 330.908 316.056 330.908 316.334C330.908 316.556 330.997 316.744 331.174 316.897C331.351 317.05 331.656 317.173 332.087 317.266L333.769 317.605C334.672 317.79 335.346 318.089 335.789 318.5C336.233 318.911 336.454 319.452 336.454 320.121C336.454 320.73 336.275 321.264 335.916 321.724C335.561 322.183 335.073 322.542 334.452 322.8C333.835 323.054 333.124 323.181 332.317 323.181C331.087 323.181 330.107 322.925 329.378 322.413C328.652 321.897 328.226 321.196 328.101 320.308L330.636 320.175C330.712 320.55 330.898 320.837 331.192 321.034C331.487 321.228 331.864 321.325 332.323 321.325C332.775 321.325 333.138 321.238 333.412 321.064C333.69 320.887 333.831 320.659 333.835 320.381C333.831 320.147 333.733 319.956 333.539 319.806C333.345 319.653 333.047 319.536 332.644 319.456L331.035 319.135C330.128 318.954 329.452 318.639 329.009 318.191C328.569 317.744 328.349 317.173 328.349 316.48C328.349 315.883 328.511 315.369 328.833 314.937C329.16 314.506 329.618 314.173 330.206 313.939C330.799 313.705 331.493 313.588 332.287 313.588C333.46 313.588 334.384 313.836 335.057 314.332C335.735 314.828 336.13 315.504 336.243 316.359Z" fill="white"/>
<path d="M302.952 185.418C282.725 171.194 279.866 157.638 293.329 137.379C269.518 132.986 262.029 121.882 267.079 98.1468C243.524 103.237 232.507 95.6873 228.148 71.696C208.042 85.2591 194.593 82.3801 180.476 62C166.358 82.3801 152.91 85.2662 132.804 71.696C128.444 95.6873 117.428 103.237 93.8729 98.1468C98.9225 121.882 91.4335 132.986 67.6225 137.379C81.0856 157.638 78.2265 171.194 58 185.418C78.2265 199.642 81.0856 213.198 67.6225 233.458C91.4335 237.851 98.9225 248.954 93.8729 272.689C117.428 267.6 128.444 275.149 132.804 299.14C152.91 285.577 166.358 288.456 180.476 308.836C194.593 288.456 208.042 285.57 228.148 299.14C232.507 275.149 243.524 267.6 267.079 272.689C262.029 248.954 269.518 237.851 293.329 233.458C279.866 213.198 282.725 199.642 302.952 185.418Z" fill="url(#paint3_linear_4_16)"/>
<path d="M180.161 281.229C233.27 281.229 276.323 238.197 276.323 185.114C276.323 132.032 233.27 89 180.161 89C127.053 89 84 132.032 84 185.114C84 238.197 127.053 281.229 180.161 281.229Z" fill="white" stroke="url(#paint4_linear_4_16)" stroke-width="5" stroke-miterlimit="10"/>
<path d="M108.53 208V161.359H127.979C131.471 161.359 134.394 161.852 136.747 162.839C139.115 163.826 140.892 165.208 142.076 166.984C143.275 168.76 143.875 170.818 143.875 173.156C143.875 174.932 143.503 176.519 142.759 177.916C142.015 179.297 140.99 180.443 139.685 181.354C138.379 182.265 136.868 182.903 135.153 183.267V183.723C137.035 183.814 138.774 184.323 140.368 185.249C141.977 186.175 143.268 187.465 144.24 189.12C145.211 190.76 145.697 192.703 145.697 194.951C145.697 197.456 145.059 199.695 143.784 201.669C142.509 203.627 140.664 205.176 138.25 206.315C135.836 207.438 132.906 208 129.459 208H108.53ZM119.803 198.913H126.772C129.216 198.913 131.015 198.45 132.169 197.524C133.338 196.598 133.923 195.307 133.923 193.652C133.923 192.453 133.642 191.421 133.08 190.555C132.519 189.675 131.721 188.999 130.689 188.528C129.657 188.042 128.419 187.799 126.977 187.799H119.803V198.913ZM119.803 180.535H126.043C127.273 180.535 128.366 180.33 129.323 179.92C130.279 179.51 131.023 178.918 131.554 178.143C132.101 177.369 132.374 176.435 132.374 175.342C132.374 173.778 131.82 172.548 130.712 171.653C129.603 170.757 128.108 170.309 126.225 170.309H119.803V180.535ZM151.117 208V173.019H161.935V179.396H162.299C162.937 177.088 163.977 175.372 165.419 174.249C166.862 173.11 168.539 172.541 170.452 172.541C170.969 172.541 171.5 172.579 172.047 172.655C172.593 172.716 173.102 172.814 173.572 172.951V182.63C173.041 182.448 172.343 182.303 171.477 182.197C170.627 182.091 169.868 182.038 169.2 182.038C167.879 182.038 166.687 182.334 165.624 182.926C164.577 183.503 163.749 184.315 163.142 185.363C162.55 186.395 162.254 187.61 162.254 189.006V208H151.117ZM178.11 208V173.019H189.247V208H178.11ZM183.69 168.943C182.126 168.943 180.782 168.426 179.659 167.394C178.535 166.346 177.974 165.086 177.974 163.613C177.974 162.156 178.535 160.911 179.659 159.879C180.782 158.831 182.126 158.307 183.69 158.307C185.269 158.307 186.612 158.831 187.721 159.879C188.844 160.911 189.406 162.156 189.406 163.613C189.406 165.086 188.844 166.346 187.721 167.394C186.612 168.426 185.269 168.943 183.69 168.943ZM216.08 173.019V181.218H194.012V173.019H216.08ZM198.635 164.638H209.772V197C209.772 197.683 209.878 198.238 210.091 198.663C210.318 199.073 210.645 199.369 211.07 199.551C211.495 199.718 212.004 199.801 212.596 199.801C213.021 199.801 213.469 199.763 213.939 199.687C214.425 199.596 214.79 199.52 215.033 199.46L216.718 207.499C216.186 207.651 215.435 207.841 214.463 208.068C213.507 208.296 212.36 208.44 211.024 208.501C208.413 208.622 206.173 208.319 204.306 207.59C202.454 206.846 201.034 205.692 200.047 204.128C199.076 202.565 198.605 200.598 198.635 198.23V164.638ZM237.738 208.66C234.079 208.66 230.921 207.939 228.264 206.497C225.622 205.039 223.588 202.967 222.161 200.28C220.749 197.577 220.043 194.366 220.043 190.646C220.043 187.033 220.756 183.875 222.184 181.172C223.611 178.455 225.622 176.344 228.219 174.841C230.815 173.323 233.874 172.564 237.397 172.564C239.887 172.564 242.164 172.951 244.229 173.725C246.294 174.499 248.078 175.646 249.581 177.164C251.084 178.682 252.253 180.557 253.088 182.789C253.923 185.006 254.34 187.549 254.34 190.418V193.197H223.937V186.729H243.978C243.963 185.545 243.682 184.49 243.136 183.564C242.589 182.637 241.837 181.916 240.881 181.4C239.94 180.869 238.854 180.603 237.624 180.603C236.379 180.603 235.263 180.884 234.277 181.446C233.29 181.992 232.508 182.744 231.931 183.7C231.354 184.641 231.05 185.712 231.02 186.911V193.493C231.02 194.92 231.301 196.173 231.862 197.251C232.424 198.313 233.221 199.141 234.254 199.733C235.286 200.325 236.516 200.621 237.943 200.621C238.93 200.621 239.826 200.485 240.63 200.211C241.435 199.938 242.126 199.536 242.703 199.004C243.28 198.473 243.713 197.82 244.001 197.046L254.227 197.342C253.801 199.634 252.868 201.631 251.425 203.331C249.998 205.017 248.123 206.33 245.8 207.271C243.477 208.197 240.79 208.66 237.738 208.66Z" fill="#4CA6FA"/>
<defs>
<linearGradient id="paint0_linear_4_16" x1="10.5" y1="146" x2="345.5" y2="263" gradientUnits="userSpaceOnUse">
<stop stop-color="#3FDBFF"/>
<stop offset="1" stop-color="#3FB6FF"/>
</linearGradient>
<linearGradient id="paint1_linear_4_16" x1="96.1685" y1="24.6461" x2="25.8371" y2="107" gradientUnits="userSpaceOnUse">
<stop stop-color="#4CA6FA"/>
<stop offset="1" stop-color="#3FB6FF"/>
</linearGradient>
<linearGradient id="paint2_linear_4_16" x1="336.169" y1="287.646" x2="271" y2="351" gradientUnits="userSpaceOnUse">
<stop stop-color="#4CA6FA"/>
<stop offset="1" stop-color="#3FB6FF"/>
</linearGradient>
<linearGradient id="paint3_linear_4_16" x1="58" y1="185.418" x2="302.952" y2="185.418" gradientUnits="userSpaceOnUse">
<stop stop-color="#4CA6FA"/>
<stop offset="1" stop-color="#3FF1FF"/>
</linearGradient>
<linearGradient id="paint4_linear_4_16" x1="82.2149" y1="185.114" x2="278.101" y2="185.114" gradientUnits="userSpaceOnUse">
<stop stop-color="#2AB4FF"/>
<stop offset="1" stop-color="#1593FF"/>
</linearGradient>
</defs>
</svg>
